<?xml version="1.0" standalone="no"?>
<!DOCTYPE svg PUBLIC "-//W3C//DTD SVG 1.1//EN" "http://www.w3.org/Graphics/SVG/1.1/DTD/svg11.dtd" >
<svg xmlns="http://www.w3.org/2000/svg">
<metadata></metadata>
<defs>
<font id="fira_sansregular" horiz-adv-x="1003" >
<font-face units-per-em="2048" ascent="1608" descent="-440" />
<missing-glyph horiz-adv-x="531" />
<glyph unicode="&#xfb01;" horiz-adv-x="1174" />
<glyph unicode="&#xfb02;" horiz-adv-x="1207" />
<glyph horiz-adv-x="0" />
<glyph horiz-adv-x="682" />
<glyph unicode="&#xd;" horiz-adv-x="531" />
<glyph unicode=" "  horiz-adv-x="531" />
<glyph unicode="&#x09;" horiz-adv-x="531" />
<glyph unicode="&#xa0;" horiz-adv-x="531" />
<glyph unicode="!" horiz-adv-x="483" d="M102 117q0 57 40 97.5t99 40.5q60 0 100 -40.5t40 -97.5q0 -58 -40 -99.5t-100 -41.5q-58 0 -98.5 41t-40.5 100zM136 1383h205l-20 -921h-162z" />
<glyph unicode="&#x22;" horiz-adv-x="800" d="M121 1383h198l-30 -526h-138zM483 1383h198l-30 -526h-138z" />
<glyph unicode="#" horiz-adv-x="1038" d="M30 327v139h148l57 431h-131v141h149l40 305h157l-40 -305h308l41 305h156l-40 -305h134v-141h-152l-56 -431h134v-139h-154l-42 -327h-157l42 327h-308l-43 -327h-156l42 327h-129zM335 466h309l57 431h-310z" />
<glyph unicode="$" horiz-adv-x="1065" d="M50 151l109 118q144 -141 345 -141q126 0 207.5 62.5t81.5 177.5q0 66 -25 109.5t-87.5 78t-178.5 70.5q-207 65 -302.5 152t-95.5 235q0 140 98.5 235t259.5 113v293h160v-296q96 -10 173.5 -47t148.5 -103l-107 -116q-69 64 -142 92t-159 28q-107 0 -174 -49t-67 -142 q0 -58 24 -97t86 -72t183 -71q126 -38 210.5 -84t136 -124.5t51.5 -199.5q0 -153 -96.5 -257t-267.5 -132v-295h-160v288q-247 12 -412 174z" />
<glyph unicode="%" horiz-adv-x="1657" d="M90 1023q0 155 91.5 247.5t234.5 92.5q144 0 235.5 -92.5t91.5 -247.5t-91.5 -247t-235.5 -92q-143 0 -234.5 92.5t-91.5 246.5zM253 1023q0 -92 37 -153.5t126 -61.5q162 0 162 215q0 92 -36 154t-126 62q-89 0 -126 -60.5t-37 -155.5zM301 23l929 1404l128 -84 l-929 -1405zM915 316q0 154 91.5 246.5t236.5 92.5q144 0 234 -93t90 -246q0 -155 -90 -247.5t-234 -92.5t-236 92.5t-92 247.5zM1080 316q0 -93 37 -154.5t126 -61.5q162 0 162 216q0 92 -36 152t-126 60q-89 0 -126 -59t-37 -153z" />
<glyph unicode="&#x26;" horiz-adv-x="1530" d="M163 351q0 124 70 217.5t209 182.5q-100 96 -147.5 172.5t-47.5 172.5q0 136 95 223.5t264 87.5q108 0 191.5 -39t129.5 -109.5t46 -156.5q0 -119 -75 -204.5t-207 -162.5l353 -333q80 162 120 339l173 -50q-71 -233 -179 -396l225 -211l-133 -108l-195 189 q-86 -94 -194 -141.5t-249 -47.5q-132 0 -233.5 46.5t-158.5 131.5t-57 197zM351 358q0 -111 77.5 -173.5t203.5 -62.5q94 0 170.5 36.5t147.5 108.5l-402 384q-100 -67 -148.5 -136t-48.5 -157zM427 1098q0 -73 38.5 -130t120.5 -135q102 62 154.5 123t52.5 136 q0 84 -50 131t-134 47q-85 0 -133.5 -48t-48.5 -124z" />
<glyph unicode="'" horiz-adv-x="439" d="M121 1383h198l-30 -526h-138z" />
<glyph unicode="(" horiz-adv-x="649" d="M80 703q0 222 49 391.5t120.5 291t204.5 310.5l116 -80q-104 -155 -165.5 -276.5t-96.5 -276t-35 -360.5q0 -205 35 -359.5t96.5 -278t165.5 -276.5l-116 -80q-133 189 -204.5 310t-120.5 290.5t-49 393.5z" />
<glyph unicode=")" horiz-adv-x="649" d="M80 -211q104 153 165.5 276.5t96.5 278t35 359.5q0 206 -35 360.5t-96.5 276t-165.5 276.5l117 80q132 -189 203 -310.5t120.5 -291t49.5 -391.5q0 -223 -49.5 -393t-120.5 -291t-203 -310z" />
<glyph unicode="*" horiz-adv-x="881" d="M40 1126l54 165l285 -123l-30 315h181l-30 -317l285 127l56 -167l-307 -67l209 -232l-145 -107l-158 270l-157 -270l-145 105l207 234z" />
<glyph unicode="+" horiz-adv-x="1000" d="M124 588v153h292v301h168v-301h293v-153h-293v-299h-168v299h-292z" />
<glyph unicode="," horiz-adv-x="481" d="M76 -333l81 333q-27 20 -42 50t-15 67q0 57 40 97.5t99 40.5q60 0 100 -40.5t40 -97.5q0 -62 -36 -143l-134 -307h-133z" />
<glyph unicode="-" horiz-adv-x="808" d="M121 550v157h567v-157h-567z" />
<glyph unicode="." horiz-adv-x="481" d="M100 117q0 57 40 97.5t99 40.5q60 0 100 -40.5t40 -97.5q0 -58 -40 -99.5t-100 -41.5q-58 0 -98.5 41t-40.5 100z" />
<glyph unicode="/" horiz-adv-x="1042" d="M211 -171l465 1791l157 -36l-464 -1793z" />
<glyph unicode="0" horiz-adv-x="1119" d="M111 670q0 337 113 515t336 178t336 -178t113 -515t-113 -515.5t-336 -178.5t-336 178.5t-113 515.5zM303 670q0 -289 63 -418.5t194 -129.5q128 0 192.5 129.5t64.5 418.5q0 287 -64.5 416.5t-192.5 129.5q-131 0 -194 -128.5t-63 -417.5z" />
<glyph unicode="1" horiz-adv-x="868" d="M71 1086l415 257h163v-1343h-185v1146l-313 -190z" />
<glyph unicode="2" horiz-adv-x="992" d="M50 1160q82 102 182.5 152.5t225.5 50.5q120 0 211 -48.5t141.5 -131.5t50.5 -187q0 -123 -55 -235t-170 -243t-347 -363h604l-22 -155h-793v147q269 279 381.5 408t160.5 225.5t48 207.5q0 104 -60 163t-160 59q-82 0 -144.5 -34t-129.5 -113z" />
<glyph unicode="3" horiz-adv-x="1000" d="M30 157l112 104q121 -135 285 -135q127 0 199.5 71.5t72.5 191.5q0 132 -68.5 186.5t-199.5 54.5h-100l22 142h68q104 0 173.5 62.5t69.5 174.5q0 94 -60 149.5t-162 55.5q-78 0 -143.5 -28t-133.5 -92l-96 110q170 159 383 159q124 0 213.5 -46.5t136.5 -124.5t47 -171 q0 -122 -71 -201t-190 -108q134 -11 218.5 -95.5t84.5 -229.5q0 -117 -56 -211t-160.5 -147t-241.5 -53q-122 0 -224 45.5t-179 135.5z" />
<glyph unicode="4" horiz-adv-x="1067" d="M80 331v133l404 899l154 -65l-363 -821h382l15 362h161v-362h174v-146h-174v-331h-178v331h-575z" />
<glyph unicode="5" horiz-adv-x="1005" d="M52 147l113 108q59 -67 128 -98t155 -31q128 0 201 80.5t73 226.5q0 147 -66 213t-179 66q-52 0 -96 -10.5t-94 -35.5h-145v677h727l-26 -144h-524v-396q102 52 215 52q173 0 277 -113.5t104 -312.5q0 -132 -58 -235.5t-163.5 -160.5t-243.5 -57q-123 0 -219.5 43 t-178.5 128z" />
<glyph unicode="6" horiz-adv-x="1069" d="M111 630q0 219 61 384.5t175.5 257t270.5 91.5q153 0 277 -82l-72 -123q-94 58 -207 58q-144 0 -228.5 -138.5t-92.5 -370.5q124 176 323 176q102 0 186.5 -48t135 -144.5t50.5 -234.5q0 -142 -57.5 -252t-155 -169t-215.5 -59q-236 0 -343.5 173.5t-107.5 480.5z M297 552q6 -221 69 -325.5t196 -104.5q116 0 178.5 88.5t62.5 239.5q0 287 -217 287q-88 0 -162.5 -49.5t-126.5 -135.5z" />
<glyph unicode="7" horiz-adv-x="890" d="M50 1193v150h781v-139l-502 -1224l-168 56l483 1157h-594z" />
<glyph unicode="8" horiz-adv-x="1105" d="M90 355q0 124 67 209t198 141q-107 54 -157.5 131t-50.5 181q0 109 57 187.5t150.5 118.5t199.5 40q104 0 197.5 -38t151.5 -115.5t58 -186.5q0 -100 -56 -172t-172 -131q282 -113 282 -360q0 -111 -59 -198.5t-165.5 -136.5t-240.5 -49q-136 0 -240.5 48.5t-162 134.5 t-57.5 196zM283 355q0 -111 72 -172t197 -61q124 0 197.5 64.5t73.5 171.5q0 72 -28.5 121t-90.5 86t-174 75l-51 19q-100 -48 -148 -121.5t-48 -182.5zM327 1015q0 -96 59.5 -146t189.5 -92l35 -13q90 52 130 110.5t40 142.5q0 94 -59.5 150.5t-167.5 56.5 q-104 0 -165.5 -54t-61.5 -155z" />
<glyph unicode="9" horiz-adv-x="1053" d="M90 919q0 136 58.5 236.5t156 154t214.5 53.5q214 0 324.5 -139.5t110.5 -382.5q0 -276 -74.5 -443t-227 -266.5t-413.5 -175.5l-42 138q269 77 412.5 207t152.5 348q-46 -73 -124 -117t-176 -44q-104 0 -188.5 53t-134 150.5t-49.5 227.5zM277 915q0 -140 60.5 -211.5 t162.5 -71.5q158 0 266 167q4 222 -54.5 319.5t-187.5 97.5q-118 0 -182.5 -78.5t-64.5 -222.5z" />
<glyph unicode=":" horiz-adv-x="481" d="M100 117q0 57 40 97.5t99 40.5q60 0 100 -40.5t40 -97.5q0 -58 -40 -99.5t-100 -41.5q-58 0 -98.5 41t-40.5 100zM100 856q0 57 40 97.5t99 40.5q60 0 100 -40.5t40 -97.5q0 -58 -40 -99.5t-100 -41.5q-58 0 -98.5 41t-40.5 100z" />
<glyph unicode=";" horiz-adv-x="481" d="M76 -333l81 333q-27 20 -42 50t-15 67q0 57 40 97.5t99 40.5q60 0 100 -40.5t40 -97.5q0 -62 -36 -143l-134 -307h-133zM100 856q0 57 40 97.5t99 40.5q60 0 100 -40.5t40 -97.5q0 -58 -40 -99.5t-100 -41.5q-58 0 -98.5 41t-40.5 100z" />
<glyph unicode="&#x3c;" d="M100 574v188l737 343l67 -151l-657 -286l657 -289l-67 -148z" />
<glyph unicode="=" d="M124 393v155h755v-155h-755zM124 781v155h755v-155h-755z" />
<glyph unicode="&#x3e;" d="M100 379l657 289l-657 286l67 151l737 -343v-188l-737 -343z" />
<glyph unicode="?" horiz-adv-x="921" d="M60 1208q168 199 417 199q121 0 208 -43t131.5 -115.5t44.5 -154.5q0 -79 -27 -133.5t-65.5 -89t-102.5 -78.5q-57 -40 -90.5 -69t-55.5 -71t-22 -101v-90h-182v100q0 86 28.5 147t71 98.5t105.5 79.5q77 52 112 91t35 104q0 82 -54 127t-148 45q-161 0 -280 -144z M273 117q0 57 40 97.5t99 40.5t99.5 -40.5t40.5 -97.5q0 -58 -40.5 -99.5t-99.5 -41.5q-58 0 -98.5 41t-40.5 100z" />
<glyph unicode="@" horiz-adv-x="2046" d="M140 482q0 261 115.5 471.5t324.5 332t475 121.5q270 0 462.5 -107t291 -288t98.5 -396q0 -260 -100.5 -429t-295.5 -169q-113 0 -176 62t-81 144q-38 -88 -109 -144.5t-180 -56.5q-160 0 -253.5 120t-93.5 321q0 252 120.5 388t316.5 136q85 0 159.5 -18t156.5 -63v-520 q0 -124 34 -175t102 -51q213 0 213 451q0 196 -76.5 340t-225 223t-363.5 79q-220 0 -385.5 -99.5t-254 -274.5t-88.5 -398q0 -222 85.5 -394t250 -267.5t392.5 -95.5q192 0 386 68l51 -142q-113 -40 -212.5 -59t-225.5 -19q-269 0 -476 111t-322.5 318t-115.5 480zM799 464 q0 -151 48 -229t141 -78q150 0 216 172v496q-66 31 -143 30q-262 0 -262 -391z" />
<glyph unicode="A" horiz-adv-x="1149" d="M12 0l444 1383h241l441 -1383h-201l-104 347h-524l-104 -347h-193zM355 502h432l-215 722z" />
<glyph unicode="B" horiz-adv-x="1220" d="M201 0v1383h327q263 0 402.5 -86.5t139.5 -262.5q0 -121 -75.5 -201t-184.5 -103q144 -23 232 -99.5t88 -237.5q0 -393 -548 -393h-381zM391 153h191q169 0 258 50t89 190q0 136 -86 197t-225 61h-227v-498zM391 797h209q120 0 197.5 58t77.5 164q0 121 -81.5 167 t-245.5 46h-157v-435z" />
<glyph unicode="C" horiz-adv-x="1123" d="M111 693q0 226 76 388t206.5 244t290.5 82q124 0 209.5 -32t174.5 -105l-105 -122q-126 102 -266 102q-173 0 -278.5 -132t-105.5 -425q0 -285 104 -421t278 -136q88 0 152 30.5t141 86.5l96 -123q-62 -66 -163.5 -110t-232.5 -44q-169 0 -300 83t-204 245t-73 389z" />
<glyph unicode="D" horiz-adv-x="1291" d="M201 0v1383h289q313 0 502.5 -145.5t189.5 -538.5q0 -383 -189.5 -541t-460.5 -158h-331zM391 151h155q193 0 313 118t120 430q0 218 -62 335.5t-158.5 156.5t-226.5 39h-141v-1079z" />
<glyph unicode="E" horiz-adv-x="1073" d="M201 0v1383h749l-23 -153h-536v-451h466v-153h-466v-473h574v-153h-764z" />
<glyph unicode="F" horiz-adv-x="984" d="M201 0v1383h734l-22 -153h-522v-471h452v-150h-452v-609h-190z" />
<glyph unicode="G" horiz-adv-x="1266" d="M111 693q0 224 82 386t218.5 245t295.5 83q134 0 229.5 -37t189.5 -116l-113 -116q-74 60 -142 86t-161 26q-106 0 -195.5 -57t-145.5 -182.5t-56 -317.5q0 -291 95.5 -426t282.5 -135q155 0 263 65v415h-245l-23 154h456v-668q-100 -60 -214 -91t-252 -31 q-262 0 -413.5 182.5t-151.5 534.5z" />
<glyph unicode="H" horiz-adv-x="1364" d="M201 0v1383h190v-578h582v578h191v-1383h-191v649h-582v-649h-190z" />
<glyph unicode="I" horiz-adv-x="593" d="M201 0v1383h192v-1383h-192z" />
<glyph unicode="J" horiz-adv-x="611" d="M10 -136q92 36 138.5 78t64.5 102t18 157v1182h190v-1190q0 -205 -89 -307.5t-272 -160.5z" />
<glyph unicode="K" horiz-adv-x="1181" d="M201 0v1383h190v-1383h-190zM402 739l525 644h217l-524 -632l562 -751h-234z" />
<glyph unicode="L" horiz-adv-x="998" d="M201 0v1383h190v-1216h568l-22 -167h-736z" />
<glyph unicode="M" horiz-adv-x="1597" d="M124 0l115 1383h257l291 -1006l276 1006h260l114 -1383h-185l-48 624q-30 368 -34 564l-299 -1031h-178l-316 1033q0 -251 -26 -579l-46 -611h-181z" />
<glyph unicode="N" horiz-adv-x="1370" d="M201 0v1383h249l567 -1176q-6 52 -15.5 182t-9.5 239v755h178v-1383h-255l-562 1174q12 -138 19 -255.5t7 -284.5v-634h-178z" />
<glyph unicode="O" horiz-adv-x="1388" d="M111 688q0 222 73 385.5t205 248.5t306 85t305.5 -83t205 -244t73.5 -389q0 -225 -73.5 -386t-205 -245t-305.5 -84q-175 0 -306.5 82t-204.5 243t-73 387zM313 688q0 -287 101 -421.5t281 -134.5q381 0 381 559t-381 559q-181 0 -281.5 -136.5t-100.5 -425.5z" />
<glyph unicode="P" horiz-adv-x="1165" d="M201 0v1383h363q257 0 397.5 -107.5t140.5 -319.5q0 -227 -147 -337.5t-389 -110.5h-175v-508h-190zM391 659h167q166 0 254 64t88 231q0 148 -88 214.5t-250 66.5h-171v-576z" />
<glyph unicode="Q" horiz-adv-x="1382" d="M111 688q0 222 73 385.5t205 248.5t306 85t305.5 -83t205 -244t73.5 -389q0 -243 -80.5 -386.5t-237.5 -226.5q111 0 201 -33t175 -91l-125 -161q-120 107 -228.5 147t-292.5 40q-173 0 -303.5 81t-203.5 241t-73 386zM313 688q0 -286 101 -421t281 -135q381 0 381 559 t-381 559q-181 0 -281.5 -136.5t-100.5 -425.5z" />
<glyph unicode="R" horiz-adv-x="1214" d="M201 0v1383h363q258 0 392 -98.5t134 -292.5q0 -144 -74 -235t-225 -137l373 -620h-227l-331 586h-215v-586h-190zM391 733h193q151 0 227 61t76 198q0 128 -77 185.5t-248 57.5h-171v-502z" />
<glyph unicode="S" horiz-adv-x="1093" d="M50 155l111 122q151 -144 356 -145q129 0 213 63.5t84 183.5q0 69 -26 114t-89 81.5t-184 71.5q-212 64 -310 154.5t-98 245.5q0 104 55 186t154.5 128.5t225.5 46.5q138 0 236.5 -39t190.5 -121l-108 -121q-74 67 -149.5 95.5t-161.5 28.5q-109 0 -179 -49.5t-70 -146.5 q0 -60 24 -101.5t89 -75.5t190 -72q130 -41 216.5 -87t139.5 -127t53 -206q0 -120 -59 -212.5t-170.5 -144.5t-264.5 -52q-287 0 -469 179z" />
<glyph unicode="T" horiz-adv-x="1036" d="M30 1220v163h987l-19 -163h-384v-1220h-191v1220h-393z" />
<glyph unicode="U" horiz-adv-x="1327" d="M180 444v939h191v-925q0 -161 72 -241.5t219 -80.5q149 0 221.5 79.5t72.5 242.5v925h192v-939q0 -139 -57 -244.5t-167 -164.5t-262 -59q-231 0 -356.5 127.5t-125.5 340.5z" />
<glyph unicode="V" horiz-adv-x="1115" d="M12 1383h205l347 -1176l347 1176h192l-441 -1383h-204z" />
<glyph unicode="W" horiz-adv-x="1657" d="M50 1383h187l223 -1216l266 1216h203l273 -1216l231 1216h174l-280 -1383h-245l-255 1158l-257 -1158h-239z" />
<glyph unicode="X" horiz-adv-x="1082" d="M10 0l415 737l-379 646h217l279 -520l281 520h205l-375 -636l421 -747h-217l-319 612l-323 -612h-205z" />
<glyph unicode="Y" horiz-adv-x="1103" d="M10 1383h210l338 -684l337 684h199l-445 -851v-532h-193v530z" />
<glyph unicode="Z" horiz-adv-x="1047" d="M60 0v153l691 1069h-619v161h825v-155l-684 -1065h684l-22 -163h-875z" />
<glyph unicode="[" horiz-adv-x="645" d="M130 -233v1871h416v-155h-241v-1563h241v-153h-416z" />
<glyph unicode="\" horiz-adv-x="1042" d="M211 1584l157 36l465 -1791l-159 -38z" />
<glyph unicode="]" horiz-adv-x="645" d="M100 -80h241v1563h-241v155h415v-1871h-415v153z" />
<glyph unicode="^" horiz-adv-x="1082" d="M80 1057l380 629h164l380 -629h-197l-267 468l-265 -468h-195z" />
<glyph unicode="_" horiz-adv-x="1042" d="M34 -126h975v-159h-975v159z" />
<glyph unicode="`" horiz-adv-x="601" d="M60 1453l82 154l400 -228l-56 -98z" />
<glyph unicode="a" horiz-adv-x="1091" d="M90 295q0 169 121.5 259t344.5 90h162v78q0 113 -53.5 161t-166.5 48q-117 0 -285 -56l-46 134q197 73 365 73q186 0 279 -91t93 -261v-483q0 -65 22 -95.5t66 -47.5l-42 -128q-83 9 -133.5 45.5t-73.5 112.5q-107 -158 -316 -158q-157 0 -247 88.5t-90 230.5zM287 305 q0 -94 46 -142t136 -48q159 0 249 164v242h-138q-293 0 -293 -216z" />
<glyph unicode="b" horiz-adv-x="1191" d="M191 0v1483l184 22v-580q115 157 299 157q181 0 287.5 -145.5t106.5 -406.5q0 -164 -50.5 -289.5t-144.5 -195t-220 -69.5q-167 0 -282 141l-18 -117h-162zM375 265q42 -67 103.5 -105t130.5 -38q121 0 190.5 99.5t69.5 308.5q0 215 -64 310t-183 95q-140 0 -247 -165 v-505z" />
<glyph unicode="c" horiz-adv-x="958" d="M115 519q0 169 55.5 296t159 197t246.5 70q94 0 172.5 -27t151.5 -88l-92 -120q-53 42 -105 62t-119 20q-128 0 -199.5 -102.5t-71.5 -302.5q0 -201 70.5 -296.5t200.5 -95.5q65 0 116 20t110 67l90 -127q-144 -116 -324 -116q-214 0 -337.5 144.5t-123.5 398.5z" />
<glyph unicode="d" horiz-adv-x="1199" d="M124 524q0 163 50 289t145 197.5t221 71.5q163 0 285 -130v553l184 -22v-1483h-162l-18 147q-52 -80 -130.5 -125.5t-174.5 -45.5q-189 0 -294.5 148.5t-105.5 399.5zM323 528q0 -205 62.5 -305.5t178.5 -100.5q85 0 144.5 39.5t116.5 117.5v518q-52 68 -111 103t-134 35 q-122 0 -189.5 -102.5t-67.5 -304.5z" />
<glyph unicode="e" horiz-adv-x="1103" d="M115 517q0 165 52.5 292.5t152 200t234.5 72.5q210 0 323 -138.5t113 -383.5q0 -46 -4 -94h-675q11 -175 87.5 -257.5t197.5 -82.5q76 0 140.5 22.5t134.5 70.5l81 -110q-169 -133 -370 -133q-220 0 -343.5 144.5t-123.5 396.5zM311 602h496v12q0 157 -62.5 239 t-186.5 82q-227 0 -247 -333z" />
<glyph unicode="f" horiz-adv-x="672" d="M20 915v142h189v145q0 137 87 220t244 83q72 0 129 -13t124 -41l-58 -135q-90 40 -185 40q-84 0 -120.5 -36.5t-36.5 -115.5v-147h258l-21 -142h-237v-915h-184v915h-189z" />
<glyph unicode="g" horiz-adv-x="1042" d="M50 -107h167q0 -65 24 -101.5t86 -55.5t177 -19q166 0 237 41t71 123q0 75 -55.5 113t-156.5 38h-167q-134 0 -203 57.5t-69 143.5q0 52 29.5 100t86.5 86q-92 48 -135.5 120t-43.5 173q0 107 53.5 191.5t146.5 131.5t208 47h37q100 0 171 9q85 11 140 30t136 55l54 -167 q-60 -19 -132.5 -25.5t-176.5 -6.5q186 -84 186 -267q0 -158 -108 -258.5t-296 -100.5q-72 0 -134 20q-24 -15 -38 -42.5t-14 -55.5q0 -86 138 -87h169q107 0 189 -37.5t127.5 -104.5t45.5 -151q0 -155 -126.5 -237.5t-369.5 -82.5q-171 0 -270.5 34.5t-141.5 105t-42 180.5 zM287 712q0 -108 58.5 -173.5t164.5 -65.5q108 0 165.5 63.5t57.5 177.5q0 236 -227 236q-104 0 -161.5 -65.5t-57.5 -172.5z" />
<glyph unicode="h" horiz-adv-x="1176" d="M191 0v1481l184 20v-590q125 171 313 171q145 0 226.5 -86.5t81.5 -236.5v-759h-186v733q0 113 -43 158.5t-125 45.5t-146.5 -48t-120.5 -136v-753h-184z" />
<glyph unicode="i" horiz-adv-x="565" d="M152 1439q0 54 36 90t93 36q58 0 94 -35.5t36 -90.5q0 -54 -36 -89.5t-94 -35.5q-56 0 -92.5 35.5t-36.5 89.5zM191 0v1057h184v-1057h-184z" />
<glyph unicode="j" horiz-adv-x="561" d="M-18 -291q79 36 120.5 71.5t62.5 98.5t21 173v1005h185v-992q0 -147 -36 -235.5t-105 -143.5t-194 -111zM150 1439q0 54 36 90t93 36q58 0 94 -35.5t36 -90.5q0 -54 -36 -89.5t-94 -35.5q-56 0 -92.5 35.5t-36.5 89.5z" />
<glyph unicode="k" horiz-adv-x="1027" d="M191 0v1483l184 22v-1505h-184zM387 578l390 479h207l-390 -467l434 -590h-221z" />
<glyph unicode="l" horiz-adv-x="588" d="M180 209v1274l186 22v-1292q0 -44 14.5 -64.5t50.5 -20.5q38 0 69 12l48 -128q-75 -36 -157 -36q-102 0 -156.5 59t-54.5 174z" />
<glyph unicode="m" horiz-adv-x="1719" d="M191 0v1057h158l17 -153q118 178 304 178q98 0 167.5 -50.5t99.5 -140.5q62 92 138 141.5t177 49.5q131 0 209.5 -87.5t78.5 -235.5v-759h-186v733q0 204 -147 204h-1q-78 0 -132.5 -45t-116.5 -141v-751h-185v733q0 204 -147 204h-1q-80 0 -134.5 -46t-114.5 -140v-751 h-184z" />
<glyph unicode="n" horiz-adv-x="1176" d="M191 0v1057h158l17 -155q55 84 138.5 132t183.5 48q145 0 226.5 -86.5t81.5 -236.5v-759h-186v733q0 113 -42 158.5t-124 45.5q-84 0 -148.5 -48t-120.5 -138v-751h-184z" />
<glyph unicode="o" horiz-adv-x="1172" d="M115 528q0 165 55.5 290.5t162.5 194.5t255 69q222 0 345.5 -148.5t123.5 -403.5q0 -164 -55.5 -289.5t-162 -195t-253.5 -69.5q-222 0 -346.5 148.5t-124.5 403.5zM313 528q0 -404 273 -404t273 406q0 403 -270 403h-1h-1q-274 0 -274 -405z" />
<glyph unicode="p" horiz-adv-x="1191" d="M191 -427v1484h158l15 -142q57 81 139.5 124t172.5 43q203 0 297.5 -144.5t94.5 -407.5q0 -249 -108.5 -401.5t-306.5 -152.5q-177 0 -278 120v-502zM375 255q41 -62 101 -95.5t133 -33.5q260 0 260 404q0 405 -238 405h-1q-78 0 -142.5 -46t-112.5 -119v-515z" />
<glyph unicode="q" horiz-adv-x="1189" d="M115 524q0 163 50 289t144.5 197.5t220.5 71.5q169 0 297 -143l14 118h159v-1484l-186 21v546q-52 -78 -128.5 -121t-171.5 -43q-190 0 -294.5 148.5t-104.5 399.5zM313 528q0 -205 62 -305.5t179 -100.5q84 0 144.5 39.5t115.5 117.5v518q-52 68 -111 103t-133 35 q-122 0 -189.5 -102.5t-67.5 -304.5z" />
<glyph unicode="r" horiz-adv-x="774" d="M191 0v1057h158l19 -214q42 118 114 178.5t169 60.5q56 0 104 -12l-35 -181q-48 12 -92 13q-98 0 -158 -72.5t-95 -225.5v-604h-184z" />
<glyph unicode="s" horiz-adv-x="936" d="M50 115l103 116q124 -107 293 -107q102 0 164 42.5t62 112.5q0 56 -22 91.5t-75.5 60.5t-158.5 53q-169 44 -244.5 119t-75.5 190q0 82 49.5 148t136.5 103.5t195 37.5q109 0 195.5 -30.5t164.5 -90.5l-80 -122q-71 50 -136 73t-137 23q-90 0 -142.5 -37t-52.5 -101 q0 -65 49 -100.5t177 -70.5q177 -44 264.5 -120.5t87.5 -208.5q0 -157 -121.5 -239t-295.5 -82q-241 0 -400 139z" />
<glyph unicode="t" horiz-adv-x="724" d="M18 915v142h185v240l184 22v-262h251l-20 -142h-231v-630q0 -82 29.5 -119.5t97.5 -37.5q66 0 141 46l69 -126q-104 -72 -236 -72q-134 0 -209.5 77t-75.5 224v638h-185z" />
<glyph unicode="u" horiz-adv-x="1167" d="M180 299v758h186v-738q0 -108 38 -153t124 -45q155 0 265 182v754h184v-1057h-158l-14 165q-60 -98 -138.5 -143.5t-191.5 -45.5q-138 0 -216.5 84t-78.5 239z" />
<glyph unicode="v" horiz-adv-x="986" d="M20 1057h200l278 -892l274 892h195l-358 -1057h-224z" />
<glyph unicode="w" horiz-adv-x="1438" d="M40 1057h184l192 -929l208 929h207l199 -929l192 929h176l-240 -1057h-251l-185 891l-190 -891h-245z" />
<glyph unicode="x" horiz-adv-x="973" d="M10 0l369 558l-327 499h217l221 -387l222 387h209l-325 -491l367 -566h-222l-259 448l-263 -448h-209z" />
<glyph unicode="y" horiz-adv-x="986" d="M20 1057h197l283 -923l277 923h190l-353 -1063q-62 -185 -173.5 -292.5t-318.5 -128.5l-20 144q104 17 166.5 51.5t100 88t68.5 143.5h-62z" />
<glyph unicode="z" horiz-adv-x="876" d="M50 0v138l550 764h-504v155h714v-140l-551 -762h558l-22 -155h-745z" />
<glyph unicode="{" horiz-adv-x="645" d="M50 624v153q78 0 109.5 36t31.5 120v446q0 161 82 230t283 69v-142q-102 0 -146 -31.5t-44 -106.5v-479q0 -102 -36.5 -147.5t-114.5 -70.5q80 -29 115.5 -71t35.5 -144v-480q0 -75 44 -105.5t146 -30.5v-143q-201 0 -283 69.5t-82 229.5v445q0 85 -31.5 119t-109.5 34z " />
<glyph unicode="|" horiz-adv-x="808" d="M321 -205v1825h167v-1825h-167z" />
<glyph unicode="}" horiz-adv-x="645" d="M90 -130q102 0 146.5 30.5t44.5 105.5v480q0 102 35 144t115 71q-78 26 -114 71t-36 147v479q0 75 -44 106.5t-147 31.5v142q201 0 283.5 -69t82.5 -230v-446q0 -84 30.5 -120t109.5 -36v-153q-79 0 -109.5 -34t-30.5 -119v-445q0 -160 -82.5 -229.5t-283.5 -69.5v143z " />
<glyph unicode="~" horiz-adv-x="979" d="M71 576q100 195 274 194q61 0 105 -18.5t96 -54.5q36 -27 59 -37.5t48 -10.5q46 0 76 26t58 74l122 -65q-94 -182 -269 -182q-62 0 -106 20t-103 58q-32 25 -54 35.5t-44 10.5q-48 0 -79.5 -29t-60.5 -83z" />
<glyph unicode="&#xa2;" horiz-adv-x="958" d="M115 519q0 232 103 381.5t284 175.5v297h159v-297q130 -18 239 -109l-92 -120q-53 42 -105 62t-119 20q-128 0 -199.5 -102.5t-71.5 -302.5q0 -201 70.5 -296.5t200.5 -95.5q65 0 116 20t110 67l90 -127q-113 -90 -239 -110v-291h-161v291q-181 25 -283 166t-102 371z " />
<glyph unicode="&#xa3;" horiz-adv-x="1053" d="M80 0v147q71 26 105 55t47 76t13 134v234h-132v120h132v224q0 166 100.5 269.5t278.5 103.5q111 0 199 -41t161 -125l-123 -94q-48 56 -101 82.5t-128 26.5q-98 0 -151.5 -57t-53.5 -163v-226h418v-120h-418v-236q0 -103 -26 -159t-96 -96h643l-23 -155h-845z" />
<glyph unicode="&#xa5;" horiz-adv-x="1075" d="M10 1343h205l329 -592l327 592h194l-383 -648h227v-125h-277v-181h277v-122h-277v-267h-188v267h-279v122h279v181h-279v125h228z" />
<glyph unicode="&#xa7;" horiz-adv-x="1069" d="M140 624q0 73 41 138t108 109q-50 36 -75 84.5t-25 114.5q0 132 107.5 210t267.5 78q195 0 343 -108l-70 -116q-67 42 -131 62t-144 20q-87 0 -139 -36t-52 -96q0 -48 19.5 -78.5t71.5 -58.5t154 -62q169 -56 241 -122t72 -181q0 -68 -41 -128.5t-111 -106.5 q108 -76 108 -196q0 -134 -108.5 -213.5t-282.5 -79.5q-195 0 -337 100l67 124q62 -42 127.5 -61t148.5 -19q88 0 144.5 34.5t56.5 95.5q0 48 -20 78.5t-71.5 56.5t-157.5 60q-167 54 -239.5 118.5t-72.5 178.5zM319 649q0 -73 39.5 -110t151.5 -73q106 -37 156 -58 q41 34 64 75t23 79q0 48 -18.5 79t-63.5 56t-135 58q-70 26 -134 53q-38 -38 -60.5 -80t-22.5 -79z" />
<glyph unicode="&#xa8;" horiz-adv-x="772" d="M60 1427q0 48 33 81.5t83 33.5q48 0 81.5 -33.5t33.5 -81.5t-33.5 -81.5t-81.5 -33.5q-50 0 -83 33.5t-33 81.5zM482 1427q0 48 33 81.5t81 33.5q50 0 83 -33.5t33 -81.5t-33 -81.5t-83 -33.5q-48 0 -81 33.5t-33 81.5z" />
<glyph unicode="&#xa9;" horiz-adv-x="1624" d="M184 871q0 173 84.5 317.5t229 228.5t316.5 84t315 -84t227.5 -228.5t84.5 -317.5q0 -170 -84.5 -314.5t-227.5 -229t-315 -84.5t-316.5 84.5t-229 229t-84.5 314.5zM307 871q0 -142 66.5 -261.5t182.5 -190t258 -70.5t258 70.5t182.5 189.5t66.5 262q0 144 -66.5 264.5 t-182 190.5t-258.5 70q-142 0 -258 -70t-182.5 -190.5t-66.5 -264.5zM492 873q0 121 44 207t118 130t165 44q72 0 126.5 -20t108.5 -60l-75 -98q-67 58 -152 58q-82 0 -132.5 -64.5t-50.5 -196.5q0 -126 49.5 -190.5t133.5 -64.5q50 0 89.5 15.5t79.5 46.5l63 -96 q-103 -92 -238 -92q-149 0 -239 100.5t-90 280.5z" />
<glyph unicode="&#xaa;" d="M130 789q0 128 99.5 196.5t282.5 68.5h116v48q0 78 -40 110.5t-126 32.5q-98 0 -227 -43l-44 125q157 56 301 56q316 0 315 -271v-342q0 -46 16 -68t50 -34l-38 -122q-71 8 -114 35.5t-64 82.5q-43 -59 -108 -89.5t-145 -30.5q-127 0 -200.5 67t-73.5 178zM142 0v155h755 v-155h-755zM319 799q0 -58 34 -90.5t97 -32.5q112 0 178 107v161h-96q-213 0 -213 -145z" />
<glyph unicode="&#xab;" horiz-adv-x="1153" d="M111 512v126l351 436l110 -76l-271 -422l271 -421l-110 -77zM582 512v126l351 436l110 -76l-271 -422l271 -421l-110 -77z" />
<glyph unicode="&#xac;" d="M124 570v154h755v-441h-167v287h-588z" />
<glyph unicode="&#xad;" horiz-adv-x="808" d="M121 550v157h567v-157h-567z" />
<glyph unicode="&#xae;" horiz-adv-x="1285" d="M134 990q0 140 67.5 258.5t184 187.5t254.5 69q143 0 260 -69t184.5 -187.5t67.5 -258.5t-67.5 -258t-184.5 -186.5t-260 -68.5q-138 0 -254.5 68.5t-184 186t-67.5 258.5zM245 990q0 -115 51 -209.5t141.5 -149.5t202.5 -55q117 0 208 55t142.5 149.5t51.5 209.5 q0 114 -51.5 209.5t-142.5 151.5t-208 56q-113 0 -203 -56t-141 -152t-51 -209zM458 720v554h156q245 0 245 -169q0 -57 -36 -96.5t-95 -56.5l149 -232h-134l-123 213h-48v-213h-114zM572 1021h60q109 0 109 84q0 43 -27.5 62t-85.5 19h-56v-165z" />
<glyph unicode="&#xb0;" horiz-adv-x="1049" d="M111 1086q0 98 46 171.5t121 111.5t162 38q86 0 161 -38t121 -112.5t46 -172.5t-46 -171.5t-121 -111t-161 -37.5q-87 0 -162 38.5t-121 112t-46 171.5zM265 1086q0 -94 51.5 -145.5t123.5 -51.5q74 0 124 50.5t50 144.5t-50 145.5t-124 51.5t-124.5 -50.5t-50.5 -144.5z " />
<glyph unicode="&#xb1;" d="M124 0v155h755v-155h-755zM126 634v153h292v301h168v-301h293v-153h-293v-299h-168v299h-292z" />
<glyph unicode="&#xb4;" horiz-adv-x="601" d="M60 1379l400 228l82 -154l-425 -172z" />
<glyph unicode="&#xb5;" horiz-adv-x="1179" d="M191 -427v1484h184v-744q0 -179 159 -179q161 0 259 193v730h184v-695q1 -201 53 -362l-173 -24q-23 51 -31.5 91t-17.5 104v1q-48 -84 -119 -140t-157 -56q-62 0 -114 23.5t-79 76.5q18 -55 26 -115.5t8 -153.5v-213z" />
<glyph unicode="&#xb6;" horiz-adv-x="1472" d="M180 973q0 195 133 301.5t361 106.5l519 2v-1789l-167 -25v1666h-229v-1641l-167 -25v997q-226 12 -338 121.5t-112 285.5z" />
<glyph unicode="&#xb7;" horiz-adv-x="481" d="M100 624q0 58 40 98t99 40q60 0 100 -40t40 -98t-40 -99t-100 -41q-58 0 -98.5 41t-40.5 99z" />
<glyph unicode="&#xb8;" horiz-adv-x="551" d="M60 -435l51 104q60 -33 126 -33q46 0 73 19.5t27 61.5t-42 63t-136 21l27 231h119v-145q97 -8 142 -55t45 -115q0 -96 -70.5 -148.5t-178.5 -52.5q-56 0 -104.5 13t-78.5 36z" />
<glyph unicode="&#xba;" d="M113 963q0 191 104 305.5t287 114.5q184 0 285.5 -111.5t101.5 -308.5q0 -191 -103.5 -305t-285.5 -114q-184 0 -286.5 112t-102.5 307zM124 0v155h755v-155h-755zM303 963q0 -281 199 -281t199 281q0 144 -49.5 213t-147.5 69q-201 0 -201 -282z" />
<glyph unicode="&#xbb;" horiz-adv-x="1135" d="M111 155l270 421l-270 422l109 76l352 -436v-126l-352 -434zM565 155l270 421l-270 422l109 76l352 -436v-126l-352 -434z" />
<glyph unicode="&#xf7;" d="M124 590v155h755v-155h-755zM363 211q0 57 40 97.5t99 40.5q60 0 100 -40.5t40 -97.5q0 -58 -40 -99.5t-100 -41.5q-58 0 -98.5 41t-40.5 100zM363 1128q0 57 40 97.5t99 40.5q60 0 100 -40.5t40 -97.5q0 -58 -40 -99.5t-100 -41.5q-58 0 -98.5 41t-40.5 100z" />
<glyph unicode="&#x192;" horiz-adv-x="649" d="M-18 -291q79 36 120.5 71.5t62.5 98.5t21 173v863h-168v142h168v145q0 137 88 220t243 83q73 0 130.5 -13t122.5 -41l-58 -135q-90 40 -184 40q-84 0 -120.5 -36.5t-36.5 -115.5v-147h257l-19 -142h-238v-850q0 -147 -36 -235.5t-105 -143.5t-194 -111z" />
<glyph unicode="&#x2c6;" horiz-adv-x="785" d="M60 1363l271 227h123l272 -227l-80 -91l-253 169l-255 -169z" />
<glyph unicode="&#x2da;" horiz-adv-x="577" d="M60 1465q0 90 64.5 151.5t164.5 61.5t164 -61.5t64 -151.5t-64 -151.5t-164 -61.5t-164.5 61.5t-64.5 151.5zM182 1465q0 -52 28.5 -82.5t78.5 -30.5q48 0 77 30.5t29 82.5t-28 82.5t-78 30.5t-78.5 -30.5t-28.5 -82.5z" />
<glyph unicode="&#x2dc;" horiz-adv-x="789" d="M60 1377q38 80 93.5 128t127.5 48q40 0 69 -14t69 -40q29 -22 50 -32t43 -10q30 0 54 21t52 67l112 -55q-38 -85 -93 -129.5t-120 -44.5q-44 0 -76.5 15.5t-71.5 43.5q-28 20 -48 29t-42 9q-32 0 -56 -22t-51 -70z" />
<glyph unicode="&#x3a9;" horiz-adv-x="1388" d="M111 709q0 214 73 372t205 242t306 84q178 0 309.5 -81t203 -239t71.5 -377q0 -216 -58.5 -341.5t-207.5 -207.5h222v-161h-432v161q142 48 207.5 180t65.5 369q0 276 -99.5 408t-281.5 132q-181 0 -281.5 -133t-100.5 -408q0 -247 67.5 -373.5t203.5 -174.5v-161h-431 v161h209q-135 72 -193 200.5t-58 347.5z" />
<glyph unicode="&#x3c0;" horiz-adv-x="1193" d="M30 1028q52 18 95.5 23.5t119.5 5.5h889v-150h-159v-624q0 -76 22 -110.5t77 -48.5l-65 -148q-122 26 -170 91t-48 194v646h-366v-907h-184v907q-65 -1 -95.5 -5.5t-83.5 -18.5z" />
<glyph unicode="&#x400;" horiz-adv-x="1073" d="M201 0v1383h749l-23 -153h-536v-451h466v-153h-466v-473h574v-153h-764zM280 1674l78 155l404 -215l-48 -99z" />
<glyph unicode="&#x401;" horiz-adv-x="1073" d="M201 0v1383h749l-23 -153h-536v-451h466v-153h-466v-473h574v-153h-764zM255 1680q0 48 33 81t83 33q48 0 81.5 -33t33.5 -81t-33.5 -81.5t-81.5 -33.5q-50 0 -83 33.5t-33 81.5zM677 1680q0 48 33 81t81 33q50 0 83 -33t33 -81t-33 -81.5t-83 -33.5q-48 0 -81 33.5 t-33 81.5z" />
<glyph unicode="&#x402;" horiz-adv-x="1438" d="M30 1220v163h987l-19 -163h-384v-452q129 138 345 139q195 0 302.5 -115.5t107.5 -320.5v-278q0 -205 -89.5 -307.5t-272.5 -160.5l-50 139q93 36 139 78t64 102t18 157v268q0 137 -64 206.5t-199 69.5q-98 0 -170.5 -37.5t-130.5 -111.5v-596h-191v1220h-393z" />
<glyph unicode="&#x403;" horiz-adv-x="1019" d="M201 0v1383h799l-29 -165h-580v-1218h-190zM397 1614l402 215l80 -155l-433 -159z" />
<glyph unicode="&#x404;" horiz-adv-x="1133" d="M111 693q0 226 76 388t206.5 244t290.5 82q124 0 209.5 -32t174.5 -105l-105 -122q-126 102 -266 102q-159 0 -263.5 -110t-117.5 -349h521v-157h-524q7 -251 112 -374.5t270 -123.5q88 0 152 30.5t141 86.5l96 -123q-63 -65 -164 -109.5t-232 -44.5q-169 0 -300 83 t-204 245t-73 389z" />
<glyph unicode="&#x405;" horiz-adv-x="1093" d="M50 155l111 122q151 -144 356 -145q129 0 213 63.5t84 183.5q0 69 -26 114t-89 81.5t-184 71.5q-212 64 -310 154.5t-98 245.5q0 104 55 186t154.5 128.5t225.5 46.5q138 0 236.5 -39t190.5 -121l-108 -121q-74 67 -149.5 95.5t-161.5 28.5q-109 0 -179 -49.5t-70 -146.5 q0 -60 24 -101.5t89 -75.5t190 -72q130 -41 216.5 -87t139.5 -127t53 -206q0 -120 -59 -212.5t-170.5 -144.5t-264.5 -52q-287 0 -469 179z" />
<glyph unicode="&#x406;" horiz-adv-x="593" d="M201 0v1383h192v-1383h-192z" />
<glyph unicode="&#x407;" horiz-adv-x="593" d="M-30 1680q0 48 33 81t83 33q48 0 81.5 -33t33.5 -81t-33.5 -81.5t-81.5 -33.5q-50 0 -83 33.5t-33 81.5zM201 0v1383h192v-1383h-192zM392 1680q0 48 33 81t81 33q50 0 83 -33t33 -81t-33 -81.5t-83 -33.5q-48 0 -81 33.5t-33 81.5z" />
<glyph unicode="&#x408;" horiz-adv-x="611" d="M10 -136q92 36 138.5 78t64.5 102t18 157v1182h190v-1190q0 -205 -89 -307.5t-272 -160.5z" />
<glyph unicode="&#x409;" horiz-adv-x="1804" d="M28 124q77 29 113.5 73t57 132t42.5 283l90 771h732v-508h157q253 0 393.5 -107t140.5 -320q0 -233 -143.5 -340.5t-392.5 -107.5h-345v1222h-375l-67 -596q-28 -249 -66 -372.5t-102 -180.5t-189 -97zM1063 153h172q152 0 234 63t82 228q0 153 -82 217.5t-247 64.5h-159 v-573z" />
<glyph unicode="&#x40a;" horiz-adv-x="1894" d="M201 0v1383h190v-548h572v548h191v-548h187q237 0 370 -104.5t133 -303.5q0 -218 -140.5 -322.5t-374.5 -104.5h-366v686h-572v-686h-190zM1154 153h191q138 0 217.5 60t79.5 210q0 263 -299 263h-189v-533z" />
<glyph unicode="&#x40b;" horiz-adv-x="1438" d="M30 1220v163h987l-19 -163h-384v-452q129 138 345 139q195 0 302.5 -115.5t107.5 -320.5v-471h-191v469q0 137 -64 206.5t-199 69.5q-98 0 -170.5 -37.5t-130.5 -111.5v-596h-191v1220h-393z" />
<glyph unicode="&#x40c;" horiz-adv-x="1181" d="M201 0v1383h190v-578h191l341 578h201l-383 -648l421 -735h-220l-362 649h-189v-649h-190zM349 1614l402 215l80 -155l-433 -159z" />
<glyph unicode="&#x40d;" horiz-adv-x="1370" d="M201 0v1383h190v-674q0 -282 -25 -502l565 1176h239v-1383h-191v674q0 235 26 496l-559 -1170h-245zM426 1674l78 155l404 -215l-48 -99z" />
<glyph unicode="&#x40e;" horiz-adv-x="1082" d="M0 1383h199l371 -887l332 887h192l-401 -1010q-55 -136 -115.5 -214.5t-144.5 -120.5t-213 -62l-27 139q140 28 208 83t113 181h-70zM236 1779l122 25q20 -64 63.5 -92t116.5 -28q72 0 118 29t66 91l122 -25q-11 -109 -96.5 -172t-209.5 -63q-123 0 -206 63t-96 172z" />
<glyph unicode="&#x40f;" horiz-adv-x="1333" d="M201 0v1383h190v-1226h553v1226h190v-1383h-387v-301h-151l-30 301h-365z" />
<glyph unicode="&#x410;" horiz-adv-x="1149" d="M12 0l444 1383h241l441 -1383h-201l-104 347h-524l-104 -347h-193zM355 502h432l-215 722z" />
<glyph unicode="&#x411;" horiz-adv-x="1161" d="M201 0v1383h753l-25 -157h-538v-363h183q249 0 388.5 -106t139.5 -315q0 -228 -144 -335t-392 -107h-365zM391 153h191q153 0 235.5 62t82.5 222q0 149 -82.5 213t-241.5 64h-185v-561z" />
<glyph unicode="&#x412;" horiz-adv-x="1220" d="M201 0v1383h327q263 0 402.5 -86.5t139.5 -262.5q0 -121 -75.5 -201t-184.5 -103q144 -23 232 -99.5t88 -237.5q0 -393 -548 -393h-381zM391 153h191q169 0 258 50t89 190q0 136 -86 197t-225 61h-227v-498zM391 797h209q120 0 197.5 58t77.5 164q0 121 -81.5 167 t-245.5 46h-157v-435z" />
<glyph unicode="&#x413;" horiz-adv-x="1019" d="M201 0v1383h799l-29 -165h-580v-1218h-190z" />
<glyph unicode="&#x414;" horiz-adv-x="1225" d="M-20 157h94q54 52 83 132t50 213.5t66 478.5l50 402h703v-1226h112v-458h-150l-31 301h-796l-31 -301h-150v458zM235 157h600v1069h-345l-28 -253q-37 -309 -60 -451.5t-60 -226.5t-107 -138z" />
<glyph unicode="&#x415;" horiz-adv-x="1073" d="M201 0v1383h749l-23 -153h-536v-451h466v-153h-466v-473h574v-153h-764z" />
<glyph unicode="&#x416;" horiz-adv-x="1647" d="M10 0l404 735l-366 648h205l315 -578h165v578h182v-578h165l318 578h201l-364 -648l403 -735h-215l-343 649h-165v-649h-182v649h-167l-346 -649h-210z" />
<glyph unicode="&#x417;" horiz-adv-x="1045" d="M20 163l112 107q129 -134 320 -134q142 0 220.5 70.5t78.5 193.5q0 122 -77.5 187.5t-227.5 65.5h-133l26 155h109q120 0 191 61.5t71 168.5q0 94 -58 153t-177 59q-166 0 -316 -128l-105 115q193 170 438 170q201 0 309 -99.5t108 -253.5q0 -127 -72.5 -206.5 t-198.5 -106.5q136 -14 227 -102.5t91 -240.5q0 -125 -63.5 -220.5t-176 -148.5t-254.5 -53q-131 0 -245.5 47.5t-196.5 139.5z" />
<glyph unicode="&#x418;" horiz-adv-x="1370" d="M201 0v1383h190v-674q0 -282 -25 -502l565 1176h239v-1383h-191v674q0 235 26 496l-559 -1170h-245z" />
<glyph unicode="&#x419;" horiz-adv-x="1370" d="M201 0v1383h190v-674q0 -282 -25 -502l565 1176h239v-1383h-191v674q0 235 26 496l-559 -1170h-245zM381 1779l122 25q20 -64 63.5 -92t116.5 -28q72 0 118 29t66 91l122 -25q-11 -109 -96.5 -172t-209.5 -63q-123 0 -206 63t-96 172z" />
<glyph unicode="&#x41a;" horiz-adv-x="1181" d="M201 0v1383h190v-578h191l341 578h201l-383 -648l421 -735h-220l-362 649h-189v-649h-190z" />
<glyph unicode="&#x41b;" horiz-adv-x="1322" d="M28 124q77 29 113.5 73t57 132t42.5 283l90 771h791v-1383h-191v1222h-433l-67 -596q-28 -249 -66 -372.5t-102 -180.5t-189 -97z" />
<glyph unicode="&#x41c;" horiz-adv-x="1597" d="M124 0l115 1383h257l291 -1006l276 1006h260l114 -1383h-185l-48 624q-30 368 -34 564l-299 -1031h-178l-316 1033q0 -251 -26 -579l-46 -611h-181z" />
<glyph unicode="&#x41d;" horiz-adv-x="1364" d="M201 0v1383h190v-578h582v578h191v-1383h-191v649h-582v-649h-190z" />
<glyph unicode="&#x41e;" horiz-adv-x="1388" d="M111 688q0 222 73 385.5t205 248.5t306 85t305.5 -83t205 -244t73.5 -389q0 -225 -73.5 -386t-205 -245t-305.5 -84q-175 0 -306.5 82t-204.5 243t-73 387zM313 688q0 -287 101 -421.5t281 -134.5q381 0 381 559t-381 559q-181 0 -281.5 -136.5t-100.5 -425.5z" />
<glyph unicode="&#x41f;" horiz-adv-x="1354" d="M201 0v1383h953v-1383h-191v1220h-572v-1220h-190z" />
<glyph unicode="&#x420;" horiz-adv-x="1165" d="M201 0v1383h363q257 0 397.5 -107.5t140.5 -319.5q0 -227 -147 -337.5t-389 -110.5h-175v-508h-190zM391 659h167q166 0 254 64t88 231q0 148 -88 214.5t-250 66.5h-171v-576z" />
<glyph unicode="&#x421;" horiz-adv-x="1123" d="M111 693q0 226 76 388t206.5 244t290.5 82q124 0 209.5 -32t174.5 -105l-105 -122q-126 102 -266 102q-173 0 -278.5 -132t-105.5 -425q0 -285 104 -421t278 -136q88 0 152 30.5t141 86.5l96 -123q-62 -66 -163.5 -110t-232.5 -44q-169 0 -300 83t-204 245t-73 389z" />
<glyph unicode="&#x422;" horiz-adv-x="1036" d="M30 1220v163h987l-19 -163h-384v-1220h-191v1220h-393z" />
<glyph unicode="&#x423;" horiz-adv-x="1082" d="M0 1383h199l371 -887l332 887h192l-401 -1010q-55 -136 -115.5 -214.5t-144.5 -120.5t-213 -62l-27 139q140 28 208 83t113 181h-70z" />
<glyph unicode="&#x424;" horiz-adv-x="1645" d="M80 699q0 297 171.5 450t478.5 161v141h185v-141q320 -13 485 -168.5t165 -438.5q0 -297 -171.5 -451t-478.5 -162v-157h-185v157q-319 14 -484.5 170t-165.5 439zM277 699q0 -232 113.5 -344t344.5 -122v937q-235 -14 -346.5 -124.5t-111.5 -346.5zM911 231 q235 14 346.5 124.5t111.5 347.5q0 231 -113.5 343t-344.5 122v-937z" />
<glyph unicode="&#x425;" horiz-adv-x="1082" d="M10 0l415 737l-379 646h217l279 -520l281 520h205l-375 -636l421 -747h-217l-319 612l-323 -612h-205z" />
<glyph unicode="&#x426;" horiz-adv-x="1382" d="M201 0v1383h190v-1226h553v1226h190v-1226h161v-458h-151l-30 301h-913z" />
<glyph unicode="&#x427;" horiz-adv-x="1227" d="M80 851v532h190v-518q0 -266 264 -267q182 0 303 116v669h191v-1383h-191v558q-88 -67 -167.5 -95t-183.5 -28q-184 0 -295 113t-111 303z" />
<glyph unicode="&#x428;" horiz-adv-x="1856" d="M201 0v1383h186v-1226h452v1226h178v-1226h452v1226h187v-1383h-1455z" />
<glyph unicode="&#x429;" horiz-adv-x="1856" d="M201 0v1383h186v-1226h452v1226h178v-1226h452v1226h187v-1226h160v-458h-150l-30 301h-1435z" />
<glyph unicode="&#x42a;" horiz-adv-x="1287" d="M0 1220v163h528v-508h182q249 0 389 -107t140 -320q0 -233 -143.5 -340.5t-392.5 -107.5h-366v1220h-337zM528 153h190q153 0 235.5 63t82.5 228q0 153 -81.5 217.5t-242.5 64.5h-184v-573z" />
<glyph unicode="&#x42b;" horiz-adv-x="1643" d="M201 0v1383h190v-508h157q253 0 393.5 -107t140.5 -320q0 -233 -143.5 -340.5t-392.5 -107.5h-345zM391 153h171q152 0 234.5 63t82.5 228q0 153 -82.5 217.5t-246.5 64.5h-159v-573zM1252 0v1383h192v-1383h-192z" />
<glyph unicode="&#x42c;" horiz-adv-x="1151" d="M201 0v1383h190v-508h183q249 0 388.5 -107t139.5 -320q0 -233 -144 -340.5t-392 -107.5h-365zM391 153h191q153 0 235.5 63t82.5 228q0 153 -81.5 217.5t-242.5 64.5h-185v-573z" />
<glyph unicode="&#x42d;" horiz-adv-x="1091" d="M50 1264q86 71 182.5 107t219.5 36q245 0 387 -175t142 -539q0 -345 -141 -531t-396 -186q-128 0 -222 40t-168 108l97 123q69 -54 131.5 -82.5t154.5 -28.5q329 0 342 498h-536v157h534q-10 241 -97.5 350t-233.5 109q-90 0 -155 -24t-142 -80z" />
<glyph unicode="&#x42e;" horiz-adv-x="1804" d="M201 0v1383h190v-588h179q31 293 178 452.5t382 159.5q170 0 297.5 -82t197 -244t69.5 -390q0 -225 -69.5 -387t-197 -245t-297.5 -83q-249 0 -398.5 173.5t-163.5 488.5h-177v-638h-190zM768 678q0 -281 96.5 -413.5t265.5 -132.5q362 1 362 559q0 559 -362 559 q-173 0 -267.5 -138.5t-94.5 -433.5z" />
<glyph unicode="&#x42f;" horiz-adv-x="1195" d="M40 0l301 578q-130 50 -197.5 148.5t-67.5 230.5q0 203 134.5 314.5t393.5 111.5h392v-1383h-191v544h-281l-267 -544h-217zM279 957q0 -130 75 -196t202 -66h249v540h-189q-178 0 -257.5 -68.5t-79.5 -209.5z" />
<glyph unicode="&#x430;" horiz-adv-x="1091" d="M90 295q0 169 121.5 259t344.5 90h162v78q0 113 -53.5 161t-166.5 48q-117 0 -285 -56l-46 134q197 73 365 73q186 0 279 -91t93 -261v-483q0 -65 22 -95.5t66 -47.5l-42 -128q-83 9 -133.5 45.5t-73.5 112.5q-107 -158 -316 -158q-157 0 -247 88.5t-90 230.5zM287 305 q0 -94 46 -142t136 -48q159 0 249 164v242h-138q-293 0 -293 -216z" />
<glyph unicode="&#x431;" horiz-adv-x="1161" d="M115 582q0 231 34.5 378t122.5 242.5t245 149.5q119 41 190.5 73t145.5 82l78 -138q-71 -44 -146 -81.5t-179 -71.5q-100 -34 -158.5 -77t-93.5 -124.5t-47 -221.5q56 92 144.5 144.5t201.5 52.5q180 0 287.5 -131t107.5 -355q0 -251 -126.5 -389.5t-339.5 -138.5 t-340 150.5t-127 455.5zM313 514q0 -187 71.5 -288.5t197.5 -101.5q123 0 195 83.5t72 290.5q0 182 -59.5 262.5t-171.5 80.5q-92 0 -172 -49t-133 -150v-128z" />
<glyph unicode="&#x432;" horiz-adv-x="1131" d="M191 0v1044q186 38 347 38q195 0 310 -72.5t115 -204.5q0 -87 -49 -145t-165 -86q136 -14 202 -78.5t66 -182.5q0 -159 -121 -236t-324 -77h-381zM375 144h167q126 0 203.5 33.5t77.5 138.5q0 101 -64 138.5t-183 37.5h-201v-348zM375 628h189q99 0 155 36.5t56 122.5 q0 80 -58 116t-177 36q-84 0 -165 -12v-299z" />
<glyph unicode="&#x433;" horiz-adv-x="860" d="M191 0v1057h660l-24 -151h-452v-906h-184z" />
<glyph unicode="&#x434;" horiz-adv-x="1119" d="M0 149h74q48 32 76 73t51 143t38 299l28 393h662v-908h111v-450h-151l-30 301h-679l-29 -301h-151v450zM239 149h506v762h-312l-16 -223q-13 -186 -31 -286.5t-51.5 -154.5t-95.5 -98z" />
<glyph unicode="&#x435;" horiz-adv-x="1103" d="M115 517q0 165 52.5 292.5t152 200t234.5 72.5q210 0 323 -138.5t113 -383.5q0 -46 -4 -94h-675q11 -175 87.5 -257.5t197.5 -82.5q76 0 140.5 22.5t134.5 70.5l81 -110q-169 -133 -370 -133q-220 0 -343.5 144.5t-123.5 396.5zM311 602h496v12q0 157 -62.5 239 t-186.5 82q-227 0 -247 -333z" />
<glyph unicode="&#x436;" horiz-adv-x="1442" d="M40 0l303 562l-265 495h192l222 -433h140v433h176v-433h144l222 433h191l-265 -495l303 -562h-203l-250 479h-142v-479h-176v479h-138l-253 -479h-201z" />
<glyph unicode="&#x437;" d="M30 109l96 113q71 -50 142 -74t163 -24q259 0 260 189q0 92 -73.5 129t-203.5 37h-141l12 145h108q111 0 179 40.5t68 124.5q0 78 -58 113t-155 35q-80 0 -142.5 -22t-123.5 -64l-90 110q80 60 172 90.5t209 30.5q100 0 187 -33.5t140.5 -96.5t53.5 -151 q0 -92 -51.5 -148.5t-161.5 -86.5q133 -22 201 -82.5t68 -172.5q0 -165 -127.5 -250t-324.5 -85q-239 0 -407 133z" />
<glyph unicode="&#x438;" horiz-adv-x="1203" d="M191 0v1057h182v-477q0 -107 -7.5 -220t-12.5 -145l434 842h226v-1057h-182v477q0 121 8 229t14 143l-439 -849h-223z" />
<glyph unicode="&#x439;" horiz-adv-x="1203" d="M191 0v1057h182v-477q0 -107 -7.5 -220t-12.5 -145l434 842h226v-1057h-182v477q0 121 8 229t14 143l-439 -849h-223zM297 1525l122 26q20 -64 63.5 -92t116.5 -28q72 0 118 29.5t66 90.5l122 -26q-11 -109 -96.5 -171.5t-209.5 -62.5q-123 0 -206 63t-96 171z" />
<glyph unicode="&#x43a;" horiz-adv-x="1040" d="M191 0v1057h184v-425h139l267 425h203l-322 -489l359 -568h-218l-293 488h-135v-488h-184z" />
<glyph unicode="&#x43b;" horiz-adv-x="1155" d="M74 122q69 25 97 62.5t41.5 116t30.5 273.5l42 483h680v-1057h-184v907h-327l-31 -353q-17 -215 -44.5 -321.5t-84.5 -163.5t-173 -93z" />
<glyph unicode="&#x43c;" horiz-adv-x="1346" d="M121 0l94 1057h239l207 -756l226 756h243l96 -1057h-180l-48 500q-8 78 -10 172t-2 201l-241 -756h-175l-225 752q0 -257 -8 -367l-38 -502h-178z" />
<glyph unicode="&#x43d;" horiz-adv-x="1189" d="M191 0v1057h184v-443h439v443h186v-1057h-186v466h-439v-466h-184z" />
<glyph unicode="&#x43e;" horiz-adv-x="1172" d="M115 528q0 165 55.5 290.5t162.5 194.5t255 69q222 0 345.5 -148.5t123.5 -403.5q0 -164 -55.5 -289.5t-162 -195t-253.5 -69.5q-222 0 -346.5 148.5t-124.5 403.5zM313 528q0 -404 273 -404t273 406q0 404 -271 403q-275 1 -275 -405z" />
<glyph unicode="&#x43f;" horiz-adv-x="1183" d="M191 0v1057h803v-1057h-186v907h-433v-907h-184z" />
<glyph unicode="&#x440;" horiz-adv-x="1191" d="M191 -427v1484h158l15 -142q57 81 139.5 124t172.5 43q203 0 297.5 -144.5t94.5 -407.5q0 -249 -108.5 -401.5t-306.5 -152.5q-177 0 -278 120v-502zM375 255q41 -62 101 -95.5t133 -33.5q260 0 260 404q0 406 -239 405q-78 0 -142.5 -46t-112.5 -119v-515z" />
<glyph unicode="&#x441;" horiz-adv-x="958" d="M115 519q0 169 55.5 296t159 197t246.5 70q94 0 172.5 -27t151.5 -88l-92 -120q-53 42 -105 62t-119 20q-128 0 -199.5 -102.5t-71.5 -302.5q0 -201 70.5 -296.5t200.5 -95.5q65 0 116 20t110 67l90 -127q-144 -116 -324 -116q-214 0 -337.5 144.5t-123.5 398.5z" />
<glyph unicode="&#x442;" horiz-adv-x="904" d="M10 907v150h896l-23 -150h-339v-907h-184v907h-350z" />
<glyph unicode="&#x443;" horiz-adv-x="986" d="M20 1057h197l283 -923l277 923h190l-353 -1063q-62 -185 -173.5 -292.5t-318.5 -128.5l-20 144q104 17 166.5 51.5t100 88t68.5 143.5h-62z" />
<glyph unicode="&#x444;" horiz-adv-x="1637" d="M124 530q0 265 81.5 408.5t267.5 143.5q163 0 257 -117v540l177 -22v-522q93 121 247 121q193 0 276 -142.5t83 -409.5q0 -253 -96 -403.5t-266 -150.5q-151 0 -244 135v-517l-177 -21v538q-44 -65 -112 -100t-147 -35q-160 0 -253.5 150.5t-93.5 403.5zM323 530 q0 -203 50 -305.5t141 -102.5q64 0 119 35.5t97 97.5v559q-90 121 -218 121q-93 0 -141 -101t-48 -304zM907 253q43 -65 93 -98t116 -33q94 0 146 102.5t52 305.5q0 406 -198 405q-126 0 -209 -125v-557z" />
<glyph unicode="&#x445;" horiz-adv-x="973" d="M10 0l369 558l-327 499h217l221 -387l222 387h209l-325 -491l367 -566h-222l-259 448l-263 -448h-209z" />
<glyph unicode="&#x446;" horiz-adv-x="1224" d="M191 0v1057h184v-906h424v906h185v-908h160v-450h-150l-31 301h-772z" />
<glyph unicode="&#x447;" horiz-adv-x="1107" d="M111 638v419h184v-396q0 -100 41 -146t128 -46q70 0 147 32.5t122 82.5v473h184v-1057h-184v442q-58 -54 -143.5 -85.5t-175.5 -31.5q-151 0 -227 81.5t-76 231.5z" />
<glyph unicode="&#x448;" horiz-adv-x="1597" d="M191 0v1057h180v-908h339v908h177v-908h339v908h181v-1057h-1216z" />
<glyph unicode="&#x449;" horiz-adv-x="1597" d="M191 0v1057h180v-908h339v908h177v-908h339v908h181v-908h160v-450h-150l-30 301h-1196z" />
<glyph unicode="&#x44a;" horiz-adv-x="1141" d="M0 917v140h482v-341h140q237 0 343.5 -92t106.5 -262q0 -179 -119.5 -270.5t-295.5 -91.5h-360v917h-297zM482 144h158q113 0 174 50.5t61 167.5q0 110 -57.5 162t-197.5 52h-138v-432z" />
<glyph unicode="&#x44b;" horiz-adv-x="1472" d="M191 0v1057h184v-341h121q237 0 343.5 -92t106.5 -262q0 -179 -119.5 -270.5t-296.5 -91.5h-339zM375 144h139q112 0 173.5 50.5t61.5 167.5q0 110 -57.5 162t-197.5 52h-119v-432zM1098 0v1057h185v-1057h-185z" />
<glyph unicode="&#x44c;" horiz-adv-x="1034" d="M191 0v1057h184v-341h140q238 0 344 -92t106 -262q0 -179 -119.5 -270.5t-295.5 -91.5h-359zM375 144h159q112 0 173 50.5t61 167.5q0 110 -56.5 162t-197.5 52h-139v-432z" />
<glyph unicode="&#x44d;" horiz-adv-x="971" d="M60 92l89 119q58 -44 113.5 -64.5t130.5 -20.5q117 0 188.5 83.5t80.5 261.5h-431v141h431q-11 167 -73.5 245t-182.5 78q-71 0 -131 -19t-120 -61l-84 112q70 58 153 86.5t190 28.5q208 0 325.5 -144.5t117.5 -407.5q0 -260 -118.5 -407t-343.5 -147q-197 0 -335 116z " />
<glyph unicode="&#x44e;" horiz-adv-x="1574" d="M191 0v1057h184v-443h191q23 207 140 337.5t301 130.5q139 0 241 -68t157.5 -192.5t55.5 -291.5q0 -157 -53.5 -282.5t-156.5 -198.5t-246 -73q-193 0 -309 135.5t-132 354.5h-189v-466h-184zM753 528q0 -193 64 -298.5t188 -105.5q137 0 197 102.5t60 303.5 q0 193 -66 297t-189 104q-254 0 -254 -403z" />
<glyph unicode="&#x44f;" horiz-adv-x="1105" d="M71 0l252 448q-186 88 -187 287q0 157 113 239.5t315 82.5h351v-1057h-185v406h-230l-223 -406h-206zM331 735q0 -100 53 -144.5t172 -44.5h174v369h-170q-115 0 -172 -43t-57 -137z" />
<glyph unicode="&#x450;" horiz-adv-x="1103" d="M115 517q0 165 52.5 292.5t152 200t234.5 72.5q210 0 323 -138.5t113 -383.5q0 -46 -4 -94h-675q11 -175 87.5 -257.5t197.5 -82.5q76 0 140.5 22.5t134.5 70.5l81 -110q-169 -133 -370 -133q-220 0 -343.5 144.5t-123.5 396.5zM311 602h496v12q0 157 -62.5 239 t-186.5 82q-227 0 -247 -333zM327 1453l82 154l400 -228l-56 -98z" />
<glyph unicode="&#x451;" horiz-adv-x="1103" d="M115 517q0 165 52.5 292.5t152 200t234.5 72.5q210 0 323 -138.5t113 -383.5q0 -46 -4 -94h-675q11 -175 87.5 -257.5t197.5 -82.5q76 0 140.5 22.5t134.5 70.5l81 -110q-169 -133 -370 -133q-220 0 -343.5 144.5t-123.5 396.5zM232 1427q0 48 33 81.5t83 33.5 q48 0 81.5 -33.5t33.5 -81.5t-33.5 -81.5t-81.5 -33.5q-50 0 -83 33.5t-33 81.5zM311 602h496v12q0 157 -62.5 239t-186.5 82q-227 0 -247 -333zM654 1427q0 48 33 81.5t81 33.5q50 0 83 -33.5t33 -81.5t-33 -81.5t-83 -33.5q-48 0 -81 33.5t-33 81.5z" />
<glyph unicode="&#x452;" horiz-adv-x="1197" d="M50 1216v140h153v125l184 20v-145h314v-140h-314v-305q125 171 314 171q144 0 225 -86.5t81 -236.5v-694q0 -147 -36 -235.5t-105 -143.5t-194 -111l-54 134q79 36 121 71.5t63 98.5t21 173v681q0 113 -43 158.5t-125 45.5q-83 0 -147 -48t-121 -136v-753h-184v1216h-153 z" />
<glyph unicode="&#x453;" horiz-adv-x="860" d="M191 0v1057h660l-24 -151h-452v-906h-184zM261 1379l400 228l82 -154l-425 -172z" />
<glyph unicode="&#x454;" horiz-adv-x="967" d="M115 524q0 169 56.5 295.5t162.5 194.5t246 68q191 0 327 -115l-88 -114q-61 46 -114.5 64t-114.5 18q-123 0 -197.5 -83.5t-83.5 -239.5h438v-141h-438q17 -345 281 -345q59 0 114 20.5t117 66.5l86 -121q-142 -116 -321 -116q-220 0 -345.5 144.5t-125.5 403.5z" />
<glyph unicode="&#x455;" horiz-adv-x="936" d="M50 115l103 116q124 -107 293 -107q102 0 164 42.5t62 112.5q0 56 -22 91.5t-75.5 60.5t-158.5 53q-169 44 -244.5 119t-75.5 190q0 82 49.5 148t136.5 103.5t195 37.5q109 0 195.5 -30.5t164.5 -90.5l-80 -122q-71 50 -136 73t-137 23q-90 0 -142.5 -37t-52.5 -101 q0 -65 49 -100.5t177 -70.5q177 -44 264.5 -120.5t87.5 -208.5q0 -157 -121.5 -239t-295.5 -82q-241 0 -400 139z" />
<glyph unicode="&#x456;" horiz-adv-x="565" d="M153 1439q0 54 35.5 90t92.5 36q58 0 94.5 -35.5t36.5 -90.5q0 -54 -36.5 -89.5t-94.5 -35.5q-56 0 -92 35.5t-36 89.5zM191 0v1057h184v-1057h-184z" />
<glyph unicode="&#x457;" horiz-adv-x="565" d="M-44 1427q0 48 33 81.5t83 33.5q48 0 81.5 -33.5t33.5 -81.5t-33.5 -81.5t-81.5 -33.5q-50 0 -83 33.5t-33 81.5zM191 0v1057h184v-1057h-184zM378 1427q0 48 33 81.5t81 33.5q50 0 83 -33.5t33 -81.5t-33 -81.5t-83 -33.5q-48 0 -81 33.5t-33 81.5z" />
<glyph unicode="&#x458;" horiz-adv-x="561" d="M-18 -291q79 36 120.5 71.5t62.5 98.5t21 173v1005h185v-992q0 -147 -36 -235.5t-105 -143.5t-194 -111zM151 1439q0 54 35.5 90t92.5 36q58 0 94.5 -35.5t36.5 -90.5q0 -54 -36.5 -89.5t-94.5 -35.5q-56 0 -92 35.5t-36 89.5z" />
<glyph unicode="&#x459;" horiz-adv-x="1597" d="M74 122q69 25 97 62.5t41.5 116t30.5 273.5l42 483h672v-341h121q236 0 343 -92t107 -262q0 -179 -119.5 -270.5t-296.5 -91.5h-340v907h-318l-31 -353q-17 -215 -44.5 -321.5t-84.5 -163.5t-173 -93zM957 144h139q112 0 173.5 50.5t61.5 167.5q0 110 -57.5 162 t-197.5 52h-119v-432z" />
<glyph unicode="&#x45a;" horiz-adv-x="1633" d="M191 0v1057h184v-389h433v389h186v-389h120q449 0 449 -331q0 -165 -120 -251t-295 -86h-340v528h-433v-528h-184zM994 144h142q235 0 235 193q0 96 -57.5 143.5t-197.5 47.5h-122v-384z" />
<glyph unicode="&#x45b;" horiz-adv-x="1187" d="M50 1216v140h153v125l184 20v-145h314l-21 -140h-293v-305q125 171 314 171q144 0 225 -86.5t81 -236.5v-759h-184v733q0 113 -43 158.5t-125 45.5q-83 0 -147 -48t-121 -136v-753h-184v1216h-153z" />
<glyph unicode="&#x45c;" horiz-adv-x="1040" d="M191 0v1057h184v-425h139l267 425h203l-322 -489l359 -568h-218l-293 488h-135v-488h-184zM301 1379l400 228l82 -154l-425 -172z" />
<glyph unicode="&#x45d;" horiz-adv-x="1203" d="M191 0v1057h182v-477q0 -107 -7.5 -220t-12.5 -145l434 842h226v-1057h-182v477q0 121 8 229t14 143l-439 -849h-223zM381 1453l82 154l400 -228l-56 -98z" />
<glyph unicode="&#x45e;" horiz-adv-x="986" d="M20 1057h197l283 -923l277 923h190l-353 -1063q-62 -185 -173.5 -292.5t-318.5 -128.5l-20 144q104 17 166.5 51.5t100 88t68.5 143.5h-62zM188 1525l122 26q20 -64 63.5 -92t116.5 -28q72 0 118 29.5t66 90.5l122 -26q-11 -109 -96.5 -171.5t-209.5 -62.5 q-123 0 -206 63t-96 171z" />
<glyph unicode="&#x45f;" horiz-adv-x="1174" d="M191 0v1057h184v-906h424v906h185v-1057h-306v-301h-150l-30 301h-307z" />
<glyph unicode="&#x462;" horiz-adv-x="1384" d="M30 1220v163h989l-19 -163h-386v-357h183q249 0 388.5 -106t139.5 -315q0 -228 -143.5 -335t-392.5 -107h-366v1220h-393zM614 153h191q152 0 234.5 62t82.5 222q0 149 -82.5 213t-240.5 64h-185v-561z" />
<glyph unicode="&#x463;" horiz-adv-x="1059" d="M50 937v141h169v219l185 22v-241h266l-21 -141h-245v-221h110q241 0 358.5 -87t117.5 -265q0 -183 -125.5 -273.5t-356.5 -90.5h-289v937h-169zM404 144h124q127 0 196 47.5t69 172.5q0 110 -65.5 161t-195.5 51h-128v-432z" />
<glyph unicode="&#x472;" horiz-adv-x="1388" d="M111 688q0 222 73 385.5t205 248.5t306 85t305.5 -83t205 -244t73.5 -389q0 -225 -73.5 -386t-205 -245t-305.5 -84q-175 0 -306.5 82t-204.5 243t-73 387zM309 634q9 -259 112 -380.5t274 -121.5q174 0 275.5 121.5t109.5 380.5h-771zM309 775h771q-14 245 -114.5 360 t-270.5 115q-167 0 -268.5 -116.5t-117.5 -358.5z" />
<glyph unicode="&#x473;" horiz-adv-x="1172" d="M115 528q0 165 55.5 290.5t162.5 194.5t255 69q222 0 345.5 -148.5t123.5 -403.5q0 -164 -55.5 -289.5t-162 -195t-253.5 -69.5q-222 0 -346.5 148.5t-124.5 403.5zM313 467q19 -343 273 -343t273 343h-546zM316 609h543q-26 325 -271 324q-248 1 -272 -324z" />
<glyph unicode="&#x474;" horiz-adv-x="1117" d="M12 1383h205l347 -1180l279 951q28 91 50 143.5t57 109.5l188 -34q-38 -54 -65 -114t-60 -161l-351 -1098h-204z" />
<glyph unicode="&#x475;" horiz-adv-x="986" d="M20 1057h197l281 -900l211 680q30 100 51 151.5t48 83.5l182 -24q-34 -52 -60 -111.5t-59 -153.5l-271 -783h-215z" />
<glyph unicode="&#x490;" horiz-adv-x="1019" d="M201 0v1383h613v255h186v-255l-29 -165h-580v-1218h-190z" />
<glyph unicode="&#x491;" horiz-adv-x="856" d="M191 0v1057h475v272h185v-272l-24 -151h-452v-906h-184z" />
<glyph unicode="&#x492;" horiz-adv-x="1034" d="M20 688v141h197v554h798l-27 -165h-580v-389h312v-141h-312v-688h-191v688h-197z" />
<glyph unicode="&#x493;" horiz-adv-x="884" d="M50 467v142h165v448h660l-24 -151h-451v-297h228v-142h-228v-467h-185v467h-165z" />
<glyph unicode="&#x496;" horiz-adv-x="1647" d="M10 0l404 735l-366 648h205l315 -578h165v578h182v-578h165l318 578h201l-364 -648l316 -578h140v-458h-149l-31 301h-88l-343 649h-165v-649h-182v649h-167l-346 -649h-210z" />
<glyph unicode="&#x497;" horiz-adv-x="1442" d="M40 0l303 562l-265 495h192l222 -433h140v433h176v-433h144l222 433h191l-265 -495l223 -413h132v-450h-151l-30 301h-74l-250 479h-142v-479h-176v479h-138l-253 -479h-201z" />
<glyph unicode="&#x498;" horiz-adv-x="1045" d="M20 163l112 107q129 -134 320 -134q142 0 220.5 70.5t78.5 193.5q0 122 -77.5 187.5t-227.5 65.5h-133l26 155h109q120 0 191 61.5t71 168.5q0 94 -58 153t-177 59q-166 0 -316 -128l-105 115q193 170 438 170q201 0 309 -99.5t108 -253.5q0 -127 -72.5 -206.5 t-198.5 -106.5q136 -14 227 -102.5t91 -240.5q0 -172 -116 -284t-302 -134q151 -98 150 -239q0 -102 -69 -163.5t-188 -61.5q-113 0 -196 51l46 108q35 -18 64.5 -27.5t73.5 -9.5q56 0 85.5 30.5t29.5 82.5q0 62 -37 121t-114 108q-109 12 -201 58t-162 125z" />
<glyph unicode="&#x499;" d="M30 109l96 113q71 -50 142 -74t163 -24q259 0 260 189q0 92 -73.5 129t-203.5 37h-141l12 145h108q111 0 179 40.5t68 124.5q0 78 -58 113t-155 35q-80 0 -142.5 -22t-123.5 -64l-90 110q80 60 172 90.5t209 30.5q100 0 187 -33.5t140.5 -96.5t53.5 -151 q0 -92 -51.5 -148.5t-161.5 -86.5q133 -22 201 -82.5t68 -172.5q0 -140 -95 -223.5t-252 -105.5q155 -96 155 -241q0 -102 -69.5 -163.5t-187.5 -61.5q-113 0 -197 51l46 108q34 -18 64 -27.5t74 -9.5q56 0 85.5 30.5t29.5 82.5q0 60 -36.5 118t-107.5 107q-213 9 -368 133z " />
<glyph unicode="&#x49a;" horiz-adv-x="1181" d="M201 0v1383h190v-578h191l341 578h201l-383 -648l331 -578h128v-458h-150l-31 301h-77l-362 649h-189v-649h-190z" />
<glyph unicode="&#x49b;" horiz-adv-x="1040" d="M191 0v1057h184v-425h139l267 425h203l-322 -489l265 -419h128v-450h-149l-31 301h-72l-293 488h-135v-488h-184z" />
<glyph unicode="&#x49c;" horiz-adv-x="1181" d="M201 0v1383h186v-580h82v341h109v-341h42l303 580h201l-358 -648l396 -735h-216l-328 651h-40v-350h-109v350h-82v-651h-186z" />
<glyph unicode="&#x49d;" horiz-adv-x="1067" d="M191 0v1057h184v-425h73v231h94v-231h44l209 425h195l-249 -487l287 -570h-205l-239 488h-42v-247h-94v247h-73v-488h-184z" />
<glyph unicode="&#x4a0;" horiz-adv-x="1318" d="M0 1220v163h528v-578h190l341 578h201l-383 -648l421 -735h-220l-362 649h-188v-649h-191v1220h-337z" />
<glyph unicode="&#x4a1;" horiz-adv-x="1147" d="M0 917v140h482v-425h138l267 425h203l-322 -489l360 -568h-219l-293 488h-134v-488h-185v917h-297z" />
<glyph unicode="&#x4a2;" horiz-adv-x="1364" d="M201 0v1383h190v-578h582v578h191v-1226h161v-458h-151l-30 301h-171v649h-582v-649h-190z" />
<glyph unicode="&#x4a3;" horiz-adv-x="1189" d="M191 0v1057h184v-443h439v443h186v-908h160v-450h-151l-30 301h-165v466h-439v-466h-184z" />
<glyph unicode="&#x4aa;" horiz-adv-x="1123" d="M111 693q0 226 76 388t206.5 244t290.5 82q124 0 209.5 -32t174.5 -105l-105 -122q-126 102 -266 102q-173 0 -278.5 -132t-105.5 -425q0 -285 104 -421t278 -136q88 0 152 30.5t141 86.5l96 -123q-52 -56 -134.5 -97t-187.5 -53q153 -98 153 -239q0 -102 -69 -163.5 t-187 -61.5q-113 0 -197 51l46 108q34 -18 64 -27.5t74 -9.5q56 0 85 30.5t29 82.5q0 62 -37 121t-112 108q-149 20 -261.5 107t-175.5 242t-63 364z" />
<glyph unicode="&#x4ab;" horiz-adv-x="958" d="M115 519q0 169 55.5 296t159 197t246.5 70q94 0 172.5 -27t151.5 -88l-92 -120q-53 42 -105 62t-119 20q-128 0 -199.5 -102.5t-71.5 -302.5q0 -201 70.5 -296.5t200.5 -95.5q65 0 116 20t110 67l90 -127q-122 -94 -260 -112q151 -96 151 -239q0 -102 -69 -163.5 t-188 -61.5q-113 0 -197 51l46 108q34 -18 64 -27.5t74 -9.5q56 0 85.5 30.5t29.5 82.5q0 65 -39 123.5t-118 109.5q-172 33 -268 172t-96 363z" />
<glyph unicode="&#x4ac;" horiz-adv-x="1036" d="M30 1220v163h987l-19 -163h-384v-1063h161v-458h-151l-30 301h-171v1220h-393z" />
<glyph unicode="&#x4ad;" horiz-adv-x="904" d="M10 907v150h896l-23 -150h-339v-758h161v-450h-151l-30 301h-164v907h-350z" />
<glyph unicode="&#x4ae;" horiz-adv-x="1103" d="M10 1383h210l338 -684l337 684h199l-445 -851v-532h-193v530z" />
<glyph unicode="&#x4af;" horiz-adv-x="986" d="M20 1057h197l281 -854l279 854h190l-383 -1027v-436l-180 -21v457z" />
<glyph unicode="&#x4b0;" horiz-adv-x="1103" d="M10 1383h210l338 -684l337 684h199l-403 -769h198v-141h-240v-473h-193v473h-241v141h197z" />
<glyph unicode="&#x4b1;" horiz-adv-x="986" d="M20 1057h197l281 -854l279 854h190l-341 -913h167v-140h-209v-410l-180 -21v431h-209v140h167z" />
<glyph unicode="&#x4b2;" horiz-adv-x="1082" d="M10 0l415 737l-379 646h217l279 -520l281 520h205l-375 -636l333 -590h130v-458h-151l-30 301h-78l-319 612l-323 -612h-205z" />
<glyph unicode="&#x4b3;" horiz-adv-x="973" d="M10 0l369 558l-327 499h217l221 -387l222 387h209l-325 -491l271 -417h148v-450h-150l-30 301h-94l-259 448l-263 -448h-209z" />
<glyph unicode="&#x4b6;" horiz-adv-x="1227" d="M80 851v532h190v-518q0 -266 264 -267q182 0 303 116v669h191v-1226h160v-458h-150l-31 301h-170v558q-88 -67 -167.5 -95t-183.5 -28q-184 0 -295 113t-111 303z" />
<glyph unicode="&#x4b7;" horiz-adv-x="1107" d="M111 638v419h184v-396q0 -100 41 -146t128 -46q70 0 147 32.5t122 82.5v473h184v-908h161v-450h-151l-30 301h-164v442q-58 -54 -143.5 -85.5t-175.5 -31.5q-151 0 -227 81.5t-76 231.5z" />
<glyph unicode="&#x4b8;" horiz-adv-x="1237" d="M80 851v532h190v-518q0 -251 234 -267v486h118v-478q125 22 215 108v669h191v-1383h-191v558q-58 -43 -109.5 -69.5t-105.5 -38.5v-209h-118v194h-18q-184 0 -295 113t-111 303z" />
<glyph unicode="&#x4b9;" horiz-adv-x="1107" d="M111 638v419h184v-396q0 -98 38 -143t119 -49v314h110v-299q50 14 95.5 40t75.5 60v473h184v-1057h-184v442q-67 -62 -171 -95v-167h-110v147q-12 -2 -38 -2q-151 0 -227 81.5t-76 231.5z" />
<glyph unicode="&#x4ba;" horiz-adv-x="1216" d="M201 0v1383h190v-615q128 138 346 139q194 0 301.5 -115.5t107.5 -320.5v-471h-190v469q0 137 -64.5 206.5t-198.5 69.5q-98 0 -170.5 -37.5t-131.5 -111.5v-596h-190z" />
<glyph unicode="&#x4bb;" horiz-adv-x="1165" d="M191 0v1481l184 20v-704q58 76 137.5 120t175.5 44q145 0 226.5 -86t81.5 -237v-638h-186v612q0 113 -42 159t-124 46q-84 0 -148.5 -48.5t-120.5 -138.5v-630h-184z" />
<glyph unicode="&#x4c0;" horiz-adv-x="593" d="M201 0v1383h192v-1383h-192z" />
<glyph unicode="&#x4c1;" horiz-adv-x="1647" d="M10 0l404 735l-366 648h205l315 -578h165v578h182v-578h165l318 578h201l-364 -648l403 -735h-215l-343 649h-165v-649h-182v649h-167l-346 -649h-210zM520 1779l122 25q20 -64 63.5 -92t116.5 -28q72 0 118 29t66 91l122 -25q-11 -109 -96.5 -172t-209.5 -63 q-123 0 -206 63t-96 172z" />
<glyph unicode="&#x4c2;" horiz-adv-x="1442" d="M40 0l303 562l-265 495h192l222 -433h140v433h176v-433h144l222 433h191l-265 -495l303 -562h-203l-250 479h-142v-479h-176v479h-138l-253 -479h-201zM415 1525l122 26q20 -64 63.5 -92t116.5 -28q72 0 118 29.5t66 90.5l122 -26q-11 -109 -96.5 -171.5t-209.5 -62.5 q-123 0 -206 63t-96 171z" />
<glyph unicode="&#x4cb;" horiz-adv-x="1227" d="M80 851v532h190v-518q0 -266 264 -267q182 0 303 116v669h191v-1383h-171l-30 -301h-151v458h161v401q-88 -67 -167.5 -95t-183.5 -28q-184 0 -295 113t-111 303z" />
<glyph unicode="&#x4cc;" horiz-adv-x="1107" d="M111 659v398h184v-377q0 -100 41 -145t128 -45q70 0 147 32t122 82v453h184v-1057h-170l-31 -301h-150v450h167v313q-58 -54 -143.5 -85.5t-175.5 -31.5q-151 0 -227 81.5t-76 232.5z" />
<glyph unicode="&#x4cf;" horiz-adv-x="588" d="M180 209v1274l186 22v-1292q0 -44 14.5 -64.5t50.5 -20.5q38 0 69 12l48 -128q-75 -36 -157 -36q-102 0 -156.5 59t-54.5 174z" />
<glyph unicode="&#x4d0;" horiz-adv-x="1149" d="M12 0l444 1383h241l441 -1383h-201l-104 347h-524l-104 -347h-193zM271 1779l122 25q20 -64 63.5 -92t116.5 -28q72 0 118 29t66 91l122 -25q-11 -109 -96.5 -172t-209.5 -63q-123 0 -206 63t-96 172zM355 502h432l-215 722z" />
<glyph unicode="&#x4d1;" horiz-adv-x="1091" d="M90 295q0 169 121.5 259t344.5 90h162v78q0 113 -53.5 161t-166.5 48q-117 0 -285 -56l-46 134q197 73 365 73q186 0 279 -91t93 -261v-483q0 -65 22 -95.5t66 -47.5l-42 -128q-83 9 -133.5 45.5t-73.5 112.5q-107 -158 -316 -158q-157 0 -247 88.5t-90 230.5zM219 1525 l122 26q20 -64 63.5 -92t116.5 -28q72 0 118 29.5t66 90.5l122 -26q-11 -109 -96.5 -171.5t-209.5 -62.5q-123 0 -206 63t-96 171zM287 305q0 -94 46 -142t136 -48q159 0 249 164v242h-138q-293 0 -293 -216z" />
<glyph unicode="&#x4d2;" horiz-adv-x="1149" d="M12 0l444 1383h241l441 -1383h-201l-104 347h-524l-104 -347h-193zM249 1680q0 48 33 81t83 33q48 0 81.5 -33t33.5 -81t-33.5 -81.5t-81.5 -33.5q-50 0 -83 33.5t-33 81.5zM355 502h432l-215 722zM671 1680q0 48 33 81t81 33q50 0 83 -33t33 -81t-33 -81.5t-83 -33.5 q-48 0 -81 33.5t-33 81.5z" />
<glyph unicode="&#x4d3;" horiz-adv-x="1091" d="M90 295q0 169 121.5 259t344.5 90h162v78q0 113 -53.5 161t-166.5 48q-117 0 -285 -56l-46 134q197 73 365 73q186 0 279 -91t93 -261v-483q0 -65 22 -95.5t66 -47.5l-42 -128q-83 9 -133.5 45.5t-73.5 112.5q-107 -158 -316 -158q-157 0 -247 88.5t-90 230.5zM196 1427 q0 48 33 81.5t83 33.5q48 0 81.5 -33.5t33.5 -81.5t-33.5 -81.5t-81.5 -33.5q-50 0 -83 33.5t-33 81.5zM287 305q0 -94 46 -142t136 -48q159 0 249 164v242h-138q-293 0 -293 -216zM618 1427q0 48 33 81.5t81 33.5q50 0 83 -33.5t33 -81.5t-33 -81.5t-83 -33.5 q-48 0 -81 33.5t-33 81.5z" />
<glyph unicode="&#x4d4;" horiz-adv-x="1637" d="M-24 0l550 1383h921l-22 -153h-620l112 -453h512v-153h-473l118 -471h456v-153h-611l-80 347h-538l-130 -347h-195zM360 502h443l-169 728z" />
<glyph unicode="&#x4d5;" horiz-adv-x="1713" d="M90 295q0 169 124.5 259t347.5 90h162v78q0 113 -54 161t-166 48q-117 0 -285 -56l-47 134q196 73 366 73q228 0 315 -169q114 169 319 169t316 -138.5t111 -383.5q0 -46 -4 -94h-674q12 -175 88.5 -257.5t196.5 -82.5q77 0 141 22.5t134 70.5l80 -110 q-168 -133 -368 -133q-127 0 -224.5 50t-158.5 145q-72 -104 -162 -149.5t-215 -45.5q-159 0 -251 88.5t-92 230.5zM293 305q0 -94 46 -142t136 -48q85 0 152.5 44t127.5 140q-31 96 -31 216v6h-138q-293 0 -293 -216zM921 602h496v12q0 157 -62 239t-187 82 q-226 0 -247 -333z" />
<glyph unicode="&#x4d6;" horiz-adv-x="1073" d="M201 0v1383h749l-23 -153h-536v-451h466v-153h-466v-473h574v-153h-764zM236 1779l122 25q20 -64 63.5 -92t116.5 -28q72 0 118 29t66 91l122 -25q-11 -109 -96.5 -172t-209.5 -63q-123 0 -206 63t-96 172z" />
<glyph unicode="&#x4d7;" horiz-adv-x="1103" d="M115 517q0 165 52.5 292.5t152 200t234.5 72.5q210 0 323 -138.5t113 -383.5q0 -46 -4 -94h-675q11 -175 87.5 -257.5t197.5 -82.5q76 0 140.5 22.5t134.5 70.5l81 -110q-169 -133 -370 -133q-220 0 -343.5 144.5t-123.5 396.5zM242 1525l122 26q20 -64 63.5 -92 t116.5 -28q72 0 118 29.5t66 90.5l122 -26q-11 -109 -96.5 -171.5t-209.5 -62.5q-123 0 -206 63t-96 171zM311 602h496v12q0 157 -62.5 239t-186.5 82q-227 0 -247 -333z" />
<glyph unicode="&#x4d8;" horiz-adv-x="1302" d="M90 672q0 48 6 103h898q-8 249 -102.5 362t-267.5 113q-186 0 -359 -130l-98 117q195 170 465 170q265 0 413 -175t148 -518q0 -247 -71.5 -412.5t-196 -245.5t-287.5 -80q-267 0 -407.5 179.5t-140.5 516.5zM279 622q8 -494 351 -494q337 0 364 494h-715z" />
<glyph unicode="&#x4d9;" horiz-adv-x="1121" d="M115 498q0 66 4 94h691q-9 176 -75.5 257.5t-188.5 81.5q-77 0 -142 -22t-129 -76l-84 123q157 126 359 126q229 0 343 -145.5t114 -406.5q0 -168 -55 -293.5t-157 -193t-241 -67.5q-203 0 -321 139.5t-118 382.5zM295 440q0 -151 69 -234.5t190 -83.5q120 0 185.5 78.5 t72.5 255.5h-517v-16z" />
<glyph unicode="&#x4da;" horiz-adv-x="1302" d="M90 672q0 48 6 103h898q-8 249 -102.5 362t-267.5 113q-186 0 -359 -130l-98 117q195 170 465 170q265 0 413 -175t148 -518q0 -247 -71.5 -412.5t-196 -245.5t-287.5 -80q-267 0 -407.5 179.5t-140.5 516.5zM279 622q8 -494 351 -494q337 0 364 494h-715zM305 1680 q0 48 33 81t83 33q48 0 81.5 -33t33.5 -81t-33.5 -81.5t-81.5 -33.5q-50 0 -83 33.5t-33 81.5zM727 1680q0 48 33 81t81 33q50 0 83 -33t33 -81t-33 -81.5t-83 -33.5q-48 0 -81 33.5t-33 81.5z" />
<glyph unicode="&#x4db;" horiz-adv-x="1121" d="M115 498q0 66 4 94h691q-9 176 -75.5 257.5t-188.5 81.5q-77 0 -142 -22t-129 -76l-84 123q157 126 359 126q229 0 343 -145.5t114 -406.5q0 -168 -55 -293.5t-157 -193t-241 -67.5q-203 0 -321 139.5t-118 382.5zM240 1427q0 48 33 81.5t83 33.5q48 0 81.5 -33.5 t33.5 -81.5t-33.5 -81.5t-81.5 -33.5q-50 0 -83 33.5t-33 81.5zM295 440q0 -151 69 -234.5t190 -83.5q120 0 185.5 78.5t72.5 255.5h-517v-16zM662 1427q0 48 33 81.5t81 33.5q50 0 83 -33.5t33 -81.5t-33 -81.5t-83 -33.5q-48 0 -81 33.5t-33 81.5z" />
<glyph unicode="&#x4dc;" horiz-adv-x="1647" d="M10 0l404 735l-366 648h205l315 -578h165v578h182v-578h165l318 578h201l-364 -648l403 -735h-215l-343 649h-165v-649h-182v649h-167l-346 -649h-210zM497 1680q0 48 33 81t83 33q48 0 81.5 -33t33.5 -81t-33.5 -81.5t-81.5 -33.5q-50 0 -83 33.5t-33 81.5zM919 1680 q0 48 33 81t81 33q50 0 83 -33t33 -81t-33 -81.5t-83 -33.5q-48 0 -81 33.5t-33 81.5z" />
<glyph unicode="&#x4dd;" horiz-adv-x="1442" d="M40 0l303 562l-265 495h192l222 -433h140v433h176v-433h144l222 433h191l-265 -495l303 -562h-203l-250 479h-142v-479h-176v479h-138l-253 -479h-201zM393 1427q0 48 33 81.5t83 33.5q48 0 81.5 -33.5t33.5 -81.5t-33.5 -81.5t-81.5 -33.5q-50 0 -83 33.5t-33 81.5z M815 1427q0 48 33 81.5t81 33.5q50 0 83 -33.5t33 -81.5t-33 -81.5t-83 -33.5q-48 0 -81 33.5t-33 81.5z" />
<glyph unicode="&#x4de;" horiz-adv-x="1045" d="M20 163l112 107q129 -134 320 -134q142 0 220.5 70.5t78.5 193.5q0 122 -77.5 187.5t-227.5 65.5h-133l26 155h109q120 0 191 61.5t71 168.5q0 94 -58 153t-177 59q-166 0 -316 -128l-105 115q193 170 438 170q201 0 309 -99.5t108 -253.5q0 -127 -72.5 -206.5 t-198.5 -106.5q136 -14 227 -102.5t91 -240.5q0 -125 -63.5 -220.5t-176 -148.5t-254.5 -53q-131 0 -245.5 47.5t-196.5 139.5zM200 1680q0 48 33 81t83 33q48 0 81.5 -33t33.5 -81t-33.5 -81.5t-81.5 -33.5q-50 0 -83 33.5t-33 81.5zM622 1680q0 48 33 81t81 33 q50 0 83 -33t33 -81t-33 -81.5t-83 -33.5q-48 0 -81 33.5t-33 81.5z" />
<glyph unicode="&#x4df;" d="M30 109l96 113q71 -50 142 -74t163 -24q259 0 260 189q0 92 -73.5 129t-203.5 37h-141l12 145h108q111 0 179 40.5t68 124.5q0 78 -58 113t-155 35q-80 0 -142.5 -22t-123.5 -64l-90 110q80 60 172 90.5t209 30.5q100 0 187 -33.5t140.5 -96.5t53.5 -151 q0 -92 -51.5 -148.5t-161.5 -86.5q133 -22 201 -82.5t68 -172.5q0 -165 -127.5 -250t-324.5 -85q-239 0 -407 133zM125 1427q0 48 33 81.5t83 33.5q48 0 81.5 -33.5t33.5 -81.5t-33.5 -81.5t-81.5 -33.5q-50 0 -83 33.5t-33 81.5zM547 1427q0 48 33 81.5t81 33.5 q50 0 83 -33.5t33 -81.5t-33 -81.5t-83 -33.5q-48 0 -81 33.5t-33 81.5z" />
<glyph unicode="&#x4e2;" horiz-adv-x="1370" d="M201 0v1383h190v-674q0 -282 -25 -502l565 1176h239v-1383h-191v674q0 235 26 496l-559 -1170h-245zM411 1580v138h549v-138h-549z" />
<glyph unicode="&#x4e3;" horiz-adv-x="1203" d="M191 0v1057h182v-477q0 -107 -7.5 -220t-12.5 -145l434 842h226v-1057h-182v477q0 121 8 229t14 143l-439 -849h-223zM327 1339v138h549v-138h-549z" />
<glyph unicode="&#x4e4;" horiz-adv-x="1370" d="M201 0v1383h190v-674q0 -282 -25 -502l565 1176h239v-1383h-191v674q0 235 26 496l-559 -1170h-245zM359 1680q0 48 33 81t83 33q48 0 81.5 -33t33.5 -81t-33.5 -81.5t-81.5 -33.5q-50 0 -83 33.5t-33 81.5zM781 1680q0 48 33 81t81 33q50 0 83 -33t33 -81t-33 -81.5 t-83 -33.5q-48 0 -81 33.5t-33 81.5z" />
<glyph unicode="&#x4e5;" horiz-adv-x="1203" d="M191 0v1057h182v-477q0 -107 -7.5 -220t-12.5 -145l434 842h226v-1057h-182v477q0 121 8 229t14 143l-439 -849h-223zM275 1427q0 48 33 81.5t83 33.5q48 0 81.5 -33.5t33.5 -81.5t-33.5 -81.5t-81.5 -33.5q-50 0 -83 33.5t-33 81.5zM697 1427q0 48 33 81.5t81 33.5 q50 0 83 -33.5t33 -81.5t-33 -81.5t-83 -33.5q-48 0 -81 33.5t-33 81.5z" />
<glyph unicode="&#x4e6;" horiz-adv-x="1388" d="M111 688q0 222 73 385.5t205 248.5t306 85t305.5 -83t205 -244t73.5 -389q0 -225 -73.5 -386t-205 -245t-305.5 -84q-175 0 -306.5 82t-204.5 243t-73 387zM313 688q0 -287 101 -421.5t281 -134.5q381 0 381 559t-381 559q-181 0 -281.5 -136.5t-100.5 -425.5zM376 1680 q0 48 33 81t83 33q48 0 81.5 -33t33.5 -81t-33.5 -81.5t-81.5 -33.5q-50 0 -83 33.5t-33 81.5zM798 1680q0 48 33 81t81 33q50 0 83 -33t33 -81t-33 -81.5t-83 -33.5q-48 0 -81 33.5t-33 81.5z" />
<glyph unicode="&#x4e7;" horiz-adv-x="1172" d="M115 528q0 165 55.5 290.5t162.5 194.5t255 69q222 0 345.5 -148.5t123.5 -403.5q0 -164 -55.5 -289.5t-162 -195t-253.5 -69.5q-222 0 -346.5 148.5t-124.5 403.5zM259 1427q0 48 33 81.5t83 33.5q48 0 81.5 -33.5t33.5 -81.5t-33.5 -81.5t-81.5 -33.5q-50 0 -83 33.5 t-33 81.5zM313 528q0 -404 273 -404t273 406q0 404 -271 403q-275 1 -275 -405zM681 1427q0 48 33 81.5t81 33.5q50 0 83 -33.5t33 -81.5t-33 -81.5t-83 -33.5q-48 0 -81 33.5t-33 81.5z" />
<glyph unicode="&#x4e8;" horiz-adv-x="1388" d="M111 688q0 222 73 385.5t205 248.5t306 85t305.5 -83t205 -244t73.5 -389q0 -225 -73.5 -386t-205 -245t-305.5 -84q-175 0 -306.5 82t-204.5 243t-73 387zM309 634q9 -259 112 -380.5t274 -121.5q174 0 275.5 121.5t109.5 380.5h-771zM309 775h771q-14 245 -114.5 360 t-270.5 115q-167 0 -268.5 -116.5t-117.5 -358.5z" />
<glyph unicode="&#x4e9;" horiz-adv-x="1172" d="M115 528q0 165 55.5 290.5t162.5 194.5t255 69q222 0 345.5 -148.5t123.5 -403.5q0 -164 -55.5 -289.5t-162 -195t-253.5 -69.5q-222 0 -346.5 148.5t-124.5 403.5zM313 467q19 -343 273 -343t273 343h-546zM316 609h543q-26 325 -271 324q-248 1 -272 -324z" />
<glyph unicode="&#x4ea;" horiz-adv-x="1388" d="M111 688q0 222 73 385.5t205 248.5t306 85t305.5 -83t205 -244t73.5 -389q0 -225 -73.5 -386t-205 -245t-305.5 -84q-175 0 -306.5 82t-204.5 243t-73 387zM309 634q9 -259 112 -380.5t274 -121.5q174 0 275.5 121.5t109.5 380.5h-771zM309 775h771q-14 245 -114.5 360 t-270.5 115q-167 0 -268.5 -116.5t-117.5 -358.5zM367 1680q0 48 33 81t83 33q48 0 81.5 -33t33.5 -81t-33.5 -81.5t-81.5 -33.5q-50 0 -83 33.5t-33 81.5zM789 1680q0 48 33 81t81 33q50 0 83 -33t33 -81t-33 -81.5t-83 -33.5q-48 0 -81 33.5t-33 81.5z" />
<glyph unicode="&#x4eb;" horiz-adv-x="1172" d="M115 528q0 165 55.5 290.5t162.5 194.5t255 69q222 0 345.5 -148.5t123.5 -403.5q0 -164 -55.5 -289.5t-162 -195t-253.5 -69.5q-222 0 -346.5 148.5t-124.5 403.5zM257 1427q0 48 33 81.5t83 33.5q48 0 81.5 -33.5t33.5 -81.5t-33.5 -81.5t-81.5 -33.5q-50 0 -83 33.5 t-33 81.5zM313 467q19 -343 273 -343t273 343h-546zM316 609h543q-26 325 -271 324q-248 1 -272 -324zM679 1427q0 48 33 81.5t81 33.5q50 0 83 -33.5t33 -81.5t-33 -81.5t-83 -33.5q-48 0 -81 33.5t-33 81.5z" />
<glyph unicode="&#x4ec;" horiz-adv-x="1091" d="M50 1264q86 71 182.5 107t219.5 36q245 0 387 -175t142 -539q0 -345 -141 -531t-396 -186q-128 0 -222 40t-168 108l97 123q69 -54 131.5 -82.5t154.5 -28.5q329 0 342 498h-536v157h534q-10 241 -97.5 350t-233.5 109q-90 0 -155 -24t-142 -80zM150 1680q0 48 33 81 t83 33q48 0 81.5 -33t33.5 -81t-33.5 -81.5t-81.5 -33.5q-50 0 -83 33.5t-33 81.5zM572 1680q0 48 33 81t81 33q50 0 83 -33t33 -81t-33 -81.5t-83 -33.5q-48 0 -81 33.5t-33 81.5z" />
<glyph unicode="&#x4ed;" horiz-adv-x="971" d="M60 92l89 119q58 -44 113.5 -64.5t130.5 -20.5q117 0 188.5 83.5t80.5 261.5h-431v141h431q-11 167 -73.5 245t-182.5 78q-71 0 -131 -19t-120 -61l-84 112q70 58 153 86.5t190 28.5q208 0 325.5 -144.5t117.5 -407.5q0 -260 -118.5 -407t-343.5 -147q-197 0 -335 116z M110 1427q0 48 33 81.5t83 33.5q48 0 81.5 -33.5t33.5 -81.5t-33.5 -81.5t-81.5 -33.5q-50 0 -83 33.5t-33 81.5zM532 1427q0 48 33 81.5t81 33.5q50 0 83 -33.5t33 -81.5t-33 -81.5t-83 -33.5q-48 0 -81 33.5t-33 81.5z" />
<glyph unicode="&#x4ee;" horiz-adv-x="1082" d="M0 1383h199l371 -887l332 887h192l-401 -1010q-55 -136 -115.5 -214.5t-144.5 -120.5t-213 -62l-27 139q140 28 208 83t113 181h-70zM267 1580v138h549v-138h-549z" />
<glyph unicode="&#x4ef;" horiz-adv-x="986" d="M20 1057h197l283 -923l277 923h190l-353 -1063q-62 -185 -173.5 -292.5t-318.5 -128.5l-20 144q104 17 166.5 51.5t100 88t68.5 143.5h-62zM219 1339v138h549v-138h-549z" />
<glyph unicode="&#x4f0;" horiz-adv-x="1082" d="M0 1383h199l371 -887l332 887h192l-401 -1010q-55 -136 -115.5 -214.5t-144.5 -120.5t-213 -62l-27 139q140 28 208 83t113 181h-70zM215 1680q0 48 33 81t83 33q48 0 81.5 -33t33.5 -81t-33.5 -81.5t-81.5 -33.5q-50 0 -83 33.5t-33 81.5zM637 1680q0 48 33 81t81 33 q50 0 83 -33t33 -81t-33 -81.5t-83 -33.5q-48 0 -81 33.5t-33 81.5z" />
<glyph unicode="&#x4f1;" horiz-adv-x="986" d="M20 1057h197l283 -923l277 923h190l-353 -1063q-62 -185 -173.5 -292.5t-318.5 -128.5l-20 144q104 17 166.5 51.5t100 88t68.5 143.5h-62zM167 1427q0 48 33 81.5t83 33.5q48 0 81.5 -33.5t33.5 -81.5t-33.5 -81.5t-81.5 -33.5q-50 0 -83 33.5t-33 81.5zM589 1427 q0 48 33 81.5t81 33.5q50 0 83 -33.5t33 -81.5t-33 -81.5t-83 -33.5q-48 0 -81 33.5t-33 81.5z" />
<glyph unicode="&#x4f2;" horiz-adv-x="1082" d="M0 1383h199l371 -887l332 887h192l-401 -1010q-55 -136 -115.5 -214.5t-144.5 -120.5t-213 -62l-27 139q140 28 208 83t113 181h-70zM315 1586l153 337l156 -83l-193 -304zM600 1576l172 347l157 -83l-212 -315z" />
<glyph unicode="&#x4f3;" horiz-adv-x="986" d="M20 1057h197l283 -923l277 923h190l-353 -1063q-62 -185 -173.5 -292.5t-318.5 -128.5l-20 144q104 17 166.5 51.5t100 88t68.5 143.5h-62zM282 1333l153 337l156 -82l-193 -305zM567 1323l172 347l157 -82l-212 -316z" />
<glyph unicode="&#x4f4;" horiz-adv-x="1227" d="M80 851v532h190v-518q0 -266 264 -267q182 0 303 116v669h191v-1383h-191v558q-88 -67 -167.5 -95t-183.5 -28q-184 0 -295 113t-111 303zM227 1680q0 48 33 81t83 33q48 0 81.5 -33t33.5 -81t-33.5 -81.5t-81.5 -33.5q-50 0 -83 33.5t-33 81.5zM649 1680q0 48 33 81 t81 33q50 0 83 -33t33 -81t-33 -81.5t-83 -33.5q-48 0 -81 33.5t-33 81.5z" />
<glyph unicode="&#x4f5;" horiz-adv-x="1107" d="M111 638v419h184v-396q0 -100 41 -146t128 -46q70 0 147 32.5t122 82.5v473h184v-1057h-184v442q-58 -54 -143.5 -85.5t-175.5 -31.5q-151 0 -227 81.5t-76 231.5zM186 1427q0 48 33 81.5t83 33.5q48 0 81.5 -33.5t33.5 -81.5t-33.5 -81.5t-81.5 -33.5q-50 0 -83 33.5 t-33 81.5zM608 1427q0 48 33 81.5t81 33.5q50 0 83 -33.5t33 -81.5t-33 -81.5t-83 -33.5q-48 0 -81 33.5t-33 81.5z" />
<glyph unicode="&#x4f6;" horiz-adv-x="1019" d="M201 0v1383h799l-29 -165h-580v-1061h161v-458h-150l-31 301h-170z" />
<glyph unicode="&#x4f7;" horiz-adv-x="860" d="M191 0v1057h660l-24 -151h-452v-757h161v-450h-151l-30 301h-164z" />
<glyph unicode="&#x4f8;" horiz-adv-x="1643" d="M201 0v1383h190v-508h157q253 0 393.5 -107t140.5 -320q0 -233 -143.5 -340.5t-392.5 -107.5h-345zM391 153h171q152 0 234.5 63t82.5 228q0 153 -82.5 217.5t-246.5 64.5h-159v-573zM489 1680q0 48 33 81t83 33q48 0 81.5 -33t33.5 -81t-33.5 -81.5t-81.5 -33.5 q-50 0 -83 33.5t-33 81.5zM911 1680q0 48 33 81t81 33q50 0 83 -33t33 -81t-33 -81.5t-83 -33.5q-48 0 -81 33.5t-33 81.5zM1252 0v1383h192v-1383h-192z" />
<glyph unicode="&#x4f9;" horiz-adv-x="1472" d="M191 0v1057h184v-341h121q237 0 343.5 -92t106.5 -262q0 -179 -119.5 -270.5t-296.5 -91.5h-339zM375 144h139q112 0 173.5 50.5t61.5 167.5q0 110 -57.5 162t-197.5 52h-119v-432zM409 1427q0 48 33 81.5t83 33.5q48 0 81.5 -33.5t33.5 -81.5t-33.5 -81.5t-81.5 -33.5 q-50 0 -83 33.5t-33 81.5zM831 1427q0 48 33 81.5t81 33.5q50 0 83 -33.5t33 -81.5t-33 -81.5t-83 -33.5q-48 0 -81 33.5t-33 81.5zM1098 0v1057h185v-1057h-185z" />
<glyph unicode="&#x2000;" horiz-adv-x="961" />
<glyph unicode="&#x2001;" horiz-adv-x="1923" />
<glyph unicode="&#x2002;" horiz-adv-x="961" />
<glyph unicode="&#x2003;" horiz-adv-x="1923" />
<glyph unicode="&#x2004;" horiz-adv-x="641" />
<glyph unicode="&#x2005;" horiz-adv-x="480" />
<glyph unicode="&#x2006;" horiz-adv-x="320" />
<glyph unicode="&#x2007;" horiz-adv-x="320" />
<glyph unicode="&#x2008;" horiz-adv-x="240" />
<glyph unicode="&#x2009;" horiz-adv-x="384" />
<glyph unicode="&#x200a;" horiz-adv-x="106" />
<glyph unicode="&#x2010;" horiz-adv-x="808" d="M121 550v157h567v-157h-567z" />
<glyph unicode="&#x2011;" horiz-adv-x="808" d="M121 550v157h567v-157h-567z" />
<glyph unicode="&#x2012;" horiz-adv-x="808" d="M121 550v157h567v-157h-567z" />
<glyph unicode="&#x2013;" horiz-adv-x="1042" d="M65 550v157h914v-157h-914z" />
<glyph unicode="&#x2014;" horiz-adv-x="1584" d="M65 550v157h1456v-157h-1456z" />
<glyph unicode="&#x2018;" horiz-adv-x="456" d="M81 1111q0 24 7 49t27 67l134 285h121l-81 -301q52 -40 52 -100q0 -52 -38.5 -89.5t-91.5 -37.5q-54 0 -92 37.5t-38 89.5z" />
<glyph unicode="&#x2019;" horiz-adv-x="456" d="M80 984l81 301q-52 40 -52 100q0 52 38.5 89.5t91.5 37.5q54 0 92 -37.5t38 -89.5q0 -24 -7 -49t-27 -67l-134 -285h-121z" />
<glyph unicode="&#x201a;" horiz-adv-x="456" d="M80 -313l81 301q-52 40 -52 100q0 52 38.5 89.5t91.5 37.5q54 0 92 -37.5t38 -89.5q0 -24 -7 -49t-27 -67l-134 -285h-121z" />
<glyph unicode="&#x201c;" horiz-adv-x="814" d="M80 1110q0 25 7 49.5t28 66.5l134 285h120l-80 -301q52 -40 52 -100q0 -52 -39 -89t-91 -37q-54 0 -92.5 36.5t-38.5 89.5zM437 1110q0 25 7.5 49.5t26.5 66.5l135 285h120l-80 -301q52 -40 53 -100q0 -52 -39.5 -89t-91.5 -37q-54 0 -92.5 36.5t-38.5 89.5z" />
<glyph unicode="&#x201d;" horiz-adv-x="814" d="M80 984l81 301q-52 40 -52 100q0 52 38.5 89t91.5 37q54 0 92 -37t38 -89q0 -25 -7 -50t-27 -67l-134 -284h-121zM437 984l80 301q-51 40 -51 100q0 52 39 89t91 37q55 0 92.5 -37t37.5 -89q0 -25 -7 -50t-26 -67l-135 -284h-121z" />
<glyph unicode="&#x201e;" horiz-adv-x="814" d="M80 -313l81 301q-52 40 -52 100q0 52 38.5 89.5t91.5 37.5q54 0 92 -37.5t38 -89.5q0 -24 -7 -49t-27 -67l-134 -285h-121zM438 -313l81 301q-52 40 -52 100q0 52 38.5 89.5t91.5 37.5q54 0 92 -37.5t38 -89.5q0 -24 -7 -49t-27 -67l-134 -285h-121z" />
<glyph unicode="&#x2020;" horiz-adv-x="1023" d="M84 893v155h339v295h177v-295h339v-155h-339v-893h-177v893h-339z" />
<glyph unicode="&#x2021;" horiz-adv-x="1023" d="M84 319v154h339v420h-339v155h339v295h177v-295h339v-155h-339v-420h339v-154h-339v-319h-177v319h-339z" />
<glyph unicode="&#x2022;" horiz-adv-x="649" d="M100 686q0 96 64 160.5t161 64.5q96 0 160.5 -65t64.5 -162q0 -96 -64.5 -160t-160.5 -64t-160.5 65t-64.5 161z" />
<glyph unicode="&#x2026;" horiz-adv-x="1480" d="M100 117q0 57 40 97.5t99 40.5q60 0 100 -40.5t40 -97.5q0 -58 -40 -99.5t-100 -41.5q-58 0 -98.5 41t-40.5 100zM600 117q0 57 40 97.5t99 40.5q60 0 100 -40.5t40 -97.5q0 -58 -40 -99.5t-100 -41.5q-58 0 -98.5 41t-40.5 100zM1100 117q0 57 40 97.5t99 40.5 q60 0 100 -40.5t40 -97.5q0 -58 -40 -99.5t-100 -41.5q-58 0 -98.5 41t-40.5 100z" />
<glyph unicode="&#x202f;" horiz-adv-x="384" />
<glyph unicode="&#x2030;" horiz-adv-x="2384" d="M90 1023q0 155 91.5 247.5t234.5 92.5q144 0 235.5 -92.5t91.5 -247.5t-91.5 -247t-235.5 -92q-143 0 -234.5 92.5t-91.5 246.5zM253 1023q0 -92 37 -153.5t126 -61.5q162 0 162 215q0 92 -36 154t-126 62q-89 0 -126 -60.5t-37 -155.5zM301 23l929 1404l128 -84 l-929 -1405zM915 316q0 154 91.5 246.5t236.5 92.5q144 0 234 -93t90 -246q0 -155 -90 -247.5t-234 -92.5t-236 92.5t-92 247.5zM1080 316q0 -93 37 -154.5t126 -61.5q162 0 162 216q0 92 -36 152t-126 60q-89 0 -126 -59t-37 -153zM1642 316q0 154 91.5 246.5t235.5 92.5 q145 0 235 -93t90 -246q0 -155 -90 -247.5t-235 -92.5q-144 0 -235.5 92.5t-91.5 247.5zM1806 316q0 -93 37.5 -154.5t125.5 -61.5q163 0 163 216q0 92 -36.5 152t-126.5 60q-88 0 -125.5 -59t-37.5 -153z" />
<glyph unicode="&#x2039;" horiz-adv-x="682" d="M111 512v126l351 436l110 -76l-271 -422l271 -421l-110 -77z" />
<glyph unicode="&#x203a;" horiz-adv-x="682" d="M111 155l270 421l-270 422l109 76l352 -436v-126l-352 -434z" />
<glyph unicode="&#x2044;" horiz-adv-x="264" d="M-335 -98l817 1603l118 -58l-815 -1604z" />
<glyph unicode="&#x205f;" horiz-adv-x="480" />
<glyph unicode="&#x20ac;" horiz-adv-x="1155" d="M50 464l30 122h140v180h-170l30 125h148q48 224 185 348t328 124q199 0 364 -113l-71 -126q-77 46 -141 66t-144 20q-247 0 -320 -319h513l-31 -125h-494v-180h456l-28 -122h-422q27 -175 107.5 -254.5t229.5 -79.5q79 0 144 22t138 61v-161q-77 -36 -149 -56t-160 -20 q-207 0 -336.5 124t-170.5 364h-176z" />
<glyph unicode="&#x2122;" horiz-adv-x="1769" d="M71 1254v129h676l-25 -129h-243v-656h-154v656h-254zM791 598l32 785h211l182 -548l167 548h216l31 -785h-151l-18 423q-2 46 -2 113q0 56 6 116h-2l-180 -570h-135l-198 567h-2q6 -62 6 -142q0 -55 -2 -84l-17 -423h-144z" />
<glyph unicode="&#x2202;" horiz-adv-x="1023" d="M60 423q0 129 51.5 228.5t137.5 152.5t193 53q92 0 165 -43.5t123 -112.5q-12 212 -145 355.5t-378 215.5l42 135q237 -68 384.5 -176.5t218.5 -280t71 -426.5q0 -160 -53 -284.5t-152.5 -194t-231.5 -69.5q-117 0 -214.5 52t-154.5 153.5t-57 241.5zM247 431 q0 -149 65 -229t176 -80q123 0 186 100.5t61 303.5q-88 186 -266 186q-96 0 -159 -72t-63 -209z" />
<glyph unicode="&#x2206;" horiz-adv-x="1169" d="M12 0l454 1383h241l451 -1383h-1146zM251 157h660l-329 1065z" />
<glyph unicode="&#x220f;" horiz-adv-x="1199" d="M115 1190v153h971v-153h-134v-1596l-182 -21v1617h-330v-1596l-181 -21v1617h-144z" />
<glyph unicode="&#x2211;" horiz-adv-x="1009" d="M100 0v157l410 513l-410 516v157h809v-157h-593l368 -470v-84l-368 -475h593v-157h-809z" />
<glyph unicode="&#x221a;" horiz-adv-x="1123" d="M84 917l163 54l270 -780l422 1519h500v-155h-369l-442 -1555h-209z" />
<glyph unicode="&#x221e;" horiz-adv-x="1795" d="M111 634q0 115 44 209t134 150.5t219 56.5q118 0 220.5 -68.5t171.5 -186.5q72 122 167 188.5t224 66.5q128 0 217 -57.5t133.5 -151.5t44.5 -209t-44.5 -209t-134.5 -150t-218 -56q-119 0 -221.5 69t-170.5 185q-71 -120 -166 -187t-225 -67q-129 0 -218 57t-133 151 t-44 209zM297 634q0 -124 58.5 -194.5t152.5 -70.5q104 0 175.5 70.5t137.5 204.5q-54 104 -127.5 180t-185.5 76q-94 0 -152.5 -70.5t-58.5 -195.5zM973 624q54 -104 128.5 -180t187.5 -76q94 0 152 70t58 194q0 125 -58 195t-152 70q-104 0 -173.5 -68.5t-142.5 -204.5z " />
<glyph unicode="&#x222b;" horiz-adv-x="749" d="M-80 -373l57 134q48 -23 86.5 -30.5t80.5 -7.5q62 0 95.5 36t33.5 103v1545q0 151 79 227t226 76q73 0 128.5 -13t122.5 -43l-57 -133q-90 40 -180 40q-78 0 -109 -37.5t-31 -116.5v-1545q0 -142 -77.5 -215.5t-215.5 -73.5q-73 0 -123 11.5t-116 42.5z" />
<glyph unicode="&#x2248;" horiz-adv-x="979" d="M71 398q100 195 274 194q61 0 105 -18.5t96 -54.5q36 -27 59 -37.5t48 -10.5q46 0 76 26t58 74l122 -65q-94 -182 -269 -182q-62 0 -106 20t-103 58q-32 25 -54 35.5t-44 10.5q-48 0 -79.5 -29t-60.5 -83zM71 777q100 195 274 194q61 0 105 -18.5t96 -54.5 q36 -27 59 -37.5t48 -10.5q46 0 76 26t58 74l122 -65q-94 -182 -269 -182q-62 0 -106 20t-103 58q-32 25 -54 35.5t-44 10.5q-48 0 -79.5 -29t-60.5 -83z" />
<glyph unicode="&#x2260;" d="M124 393v155h245l139 233h-384v154h476l157 262l100 -55l-122 -207h144v-154h-237l-136 -233h373v-155h-465l-161 -271l-102 58l126 213h-153z" />
<glyph unicode="&#x2264;" d="M100 634v188l737 343l67 -151l-657 -286l657 -289l-67 -148zM124 0v155h755v-155h-755z" />
<glyph unicode="&#x2265;" d="M100 439l657 289l-657 286l67 151l737 -343v-188l-737 -343zM124 0v155h755v-155h-755z" />
<glyph unicode="&#x25ca;" horiz-adv-x="1065" d="M60 674l365 669h215l365 -667l-365 -676h-215zM251 676l281 -540l280 538l-280 534z" />
<glyph unicode="&#x25fc;" horiz-adv-x="1053" d="M0 0v1054h1054v-1054h-1054z" />
</font>
</defs>
</svg>
